<svg height="200px" width="200px" version="1.1" id="Capa_1" xmlns="http://www.w3.org/2000/svg" xmlns:xlink="http://www.w3.org/1999/xlink" viewBox="0 0 470 470" xml:space="preserve" fill="#000000"><g id="SVGRepo_bgCarrier" stroke-width="0"></g><g id="SVGRepo_tracerCarrier" stroke-linecap="round" stroke-linejoin="round"></g><g id="SVGRepo_iconCarrier"> <g> <path style="fill:#AE8B81;" d="M367.519,322.978c0.071-17.571,0.082-53.343,0.071-88.895h-25.428c-0.012,4.157-3.368,7.5-7.498,7.5 c-0.024,0-14.192-0.045-14.192-0.045c-0.266,0.029-0.535,0.045-0.809,0.045c-0.285,0-0.566-0.019-0.843-0.05l-126.35-0.402 c-3.981-0.013-7.219-3.128-7.454-7.047h-26.543v57.133c22.053,1.833,42.446,11.373,58.06,27.303 c17.293,17.645,26.761,41.104,26.661,66.057c-0.017,4.132-3.372,7.47-7.5,7.47L235.694,455 c72.265,0,131.152-58.362,131.989-130.428C367.573,324.051,367.517,323.518,367.519,322.978z"></path> <path style="fill:#9C7A70;" d="M271.449,226.381l40.714,0.13V75.556c0.022-5.564-2.061-10.754-5.864-14.644 c-3.793-3.878-8.889-6.026-14.349-6.048c-11.297,0-20.456,9.194-20.501,20.496V226.381z"></path> <path style="fill:#9C7A70;" d="M184.994,233.606c0.013-4.134,3.369-7.476,7.5-7.476c0.024,0,7.5,0.024,7.5,0.024V203.63 c0-4.142,3.358-7.5,7.5-7.5s7.5,3.358,7.5,7.5v22.572l41.455,0.132V35.69c0.022-5.526-2.097-10.703-5.968-14.604 c-3.871-3.902-9.03-6.063-14.526-6.085c-11.551,0-20.916,9.193-20.961,20.494V173.63c0,4.142-3.358,7.5-7.5,7.5s-7.5-3.358-7.5-7.5 V74.87c-0.045-11.223-9.176-20.414-20.354-20.458c-11.467,0-21.121,9.386-21.166,20.496v159.176h26.543 C185.007,233.924,184.994,233.767,184.994,233.606z"></path> <path style="fill:#9C7A70;" d="M367.519,136.597c0.046-11.58-8.588-20.655-19.659-20.7c-11.405,0-20.652,9.194-20.697,20.495 v90.167l7.524,0.024c4.134,0.013,7.475,3.369,7.475,7.5h25.428C367.576,185.55,367.52,137.43,367.519,136.597z"></path> <path style="fill:#9C7A70;" d="M235.664,392.045c-4.142-0.017-7.486-3.388-7.47-7.53c0.084-20.98-7.861-40.689-22.374-55.497 c-14.534-14.83-34.023-23.043-54.877-23.127c-4.13-0.017-7.47-3.37-7.47-7.5V182.54c-0.045-11.224-9.245-20.416-20.508-20.461 c-11.385,0-20.615,9.194-20.66,20.496c0.001,0.926,0.165,96.368,0.004,138.606c0.062,0.383,0.094,0.775,0.094,1.175 c0,73.14,59.793,132.644,133.289,132.644C235.694,455,235.694,392.045,235.664,392.045z"></path> <path style="fill:#3E2C3A;" d="M382.525,321.423c0.158-43.562-0.004-183.417-0.006-184.805 c0.08-19.952-15.117-35.643-34.598-35.721l-0.146,0c-7.668,0-14.787,2.445-20.612,6.594V75.586 c0.038-9.501-3.563-18.438-10.141-25.163c-6.623-6.771-15.505-10.521-25.011-10.559h-0.146c-7.59,0-14.638,2.421-20.416,6.535 V35.72c0.038-9.503-3.626-18.452-10.318-25.199C254.438,3.775,245.519,0.039,236.016,0h-0.146 c-19.703,0-35.797,15.896-35.875,35.464v10.5c-5.748-4.098-12.751-6.522-20.294-6.552h-0.145 c-19.817,0-36.003,15.896-36.082,35.465v78.801c-5.785-4.126-12.844-6.568-20.447-6.599h-0.146 c-19.537,0-35.496,15.896-35.575,35.479c0.001,0.977,0.167,98.213,0,139.768c-0.001,0.418,0.034,0.832,0.104,1.239 C88.063,404.422,154.332,470,235.695,470c39.438,0,76.399-15.242,104.077-42.917c27.678-27.676,42.921-64.637,42.921-104.074 C382.693,322.464,382.636,321.934,382.525,321.423z M235.695,455c-73.496,0-133.29-59.504-133.29-132.644 c0-0.4-0.032-0.792-0.094-1.175c0.16-42.238-0.003-137.68-0.004-138.606c0.045-11.301,9.275-20.496,20.66-20.496 c11.263,0.045,20.463,9.237,20.508,20.461v115.851c0,4.13,3.339,7.483,7.47,7.5c20.854,0.084,40.343,8.297,54.877,23.127 c14.512,14.808,22.458,34.517,22.374,55.497c-0.017,4.142,3.328,7.514,7.47,7.53c4.159,0,7.514-3.338,7.53-7.47 c0.101-24.953-9.368-48.412-26.661-66.057c-15.613-15.93-36.007-25.47-58.06-27.303V74.907c0.045-11.11,9.699-20.496,21.166-20.496 c11.178,0.045,20.309,9.236,20.354,20.458v98.76c0,4.142,3.358,7.5,7.5,7.5s7.5-3.358,7.5-7.5V35.494 C215.04,24.193,224.405,15,235.955,15c5.497,0.022,10.655,2.183,14.526,6.085c3.871,3.902,5.99,9.078,5.968,14.604v190.643 l-41.455-0.132V203.63c0-4.142-3.358-7.5-7.5-7.5s-7.5,3.358-7.5,7.5v22.524l-7.476-0.024c-4.155,0-7.511,3.342-7.524,7.476 c0,0.161,0.013,0.318,0.023,0.477c0.235,3.92,3.472,7.034,7.454,7.047l126.35,0.402c0.277,0.031,0.558,0.05,0.843,0.05 c0.273,0,0.543-0.017,0.809-0.045l14.167,0.045c4.155,0,7.511-3.342,7.524-7.476c-0.001-4.155-3.342-7.511-7.476-7.524 l-7.524-0.024v-90.167c0.045-11.301,9.292-20.495,20.697-20.495c11.07,0.044,19.705,9.12,19.659,20.7 c0.001,0.833,0.057,48.953,0.071,97.486c0.011,35.551,0,71.324-0.071,88.895c-0.002,0.54,0.054,1.074,0.165,1.594 C366.846,396.637,307.959,455,235.695,455z M291.95,54.864c5.459,0.022,10.555,2.17,14.349,6.048 c3.804,3.889,5.887,9.079,5.864,14.644v150.955l-40.714-0.13V75.36C271.495,64.059,280.654,54.864,291.95,54.864z"></path> </g> </g></svg>