<svg xmlns="http://www.w3.org/2000/svg" xmlns:xlink="http://www.w3.org/1999/xlink" width="500" zoomAndPan="magnify" viewBox="0 0 375 374.999991" height="500" preserveAspectRatio="xMidYMid meet" version="1.0"><defs><g/><clipPath id="bacd5fee64"><path d="M 151.390625 120.503906 L 221.890625 120.503906 L 221.890625 181.253906 L 151.390625 181.253906 Z M 151.390625 120.503906 " clip-rule="nonzero"/></clipPath><clipPath id="2337947b45"><path d="M 137.8125 94 L 234.957031 94 L 234.957031 199.890625 L 137.8125 199.890625 Z M 137.8125 94 " clip-rule="nonzero"/></clipPath><clipPath id="df16b3d76f"><path d="M 228.667969 166.300781 C 221.410156 182.421875 205.199219 193.6875 186.386719 193.6875 C 167.570312 193.6875 151.359375 182.421875 144.105469 166.300781 L 142.640625 166.300781 C 149.984375 183.183594 166.839844 195.035156 186.386719 195.035156 C 205.933594 195.035156 222.785156 183.183594 230.132812 166.300781 Z M 144.105469 128.4375 C 151.359375 112.3125 167.570312 101.046875 186.386719 101.046875 C 205.199219 101.046875 221.410156 112.3125 228.667969 128.4375 L 230.132812 128.4375 C 222.785156 111.554688 205.960938 99.703125 186.386719 99.703125 C 166.839844 99.703125 149.984375 111.554688 142.640625 128.4375 Z M 233.320312 167.996094 C 225.273438 185.902344 207.25 198.425781 186.386719 198.425781 C 165.523438 198.425781 147.5 185.933594 139.453125 167.996094 L 137.8125 167.996094 C 145.976562 186.753906 164.675781 199.890625 186.386719 199.890625 C 208.097656 199.890625 226.796875 186.753906 234.957031 167.996094 Z M 139.453125 125.949219 C 147.5 108.042969 165.523438 95.519531 186.386719 95.519531 C 207.25 95.519531 225.273438 108.011719 233.320312 125.949219 L 234.957031 125.949219 C 226.824219 107.191406 208.097656 94.054688 186.386719 94.054688 C 164.675781 94.054688 145.976562 107.191406 137.8125 125.949219 Z M 139.453125 125.949219 " clip-rule="nonzero"/></clipPath><clipPath id="891cc0b9d8"><path d="M 227.65625 126.183594 L 259.089844 126.183594 L 259.089844 168.988281 L 227.65625 168.988281 Z M 227.65625 126.183594 " clip-rule="nonzero"/></clipPath><clipPath id="6ccdca6cce"><path d="M 114.035156 126.183594 L 145.472656 126.183594 L 145.472656 168.988281 L 114.035156 168.988281 Z M 114.035156 126.183594 " clip-rule="nonzero"/></clipPath><clipPath id="d1c76343af"><path d="M 52.808594 122.558594 L 105 122.558594 L 105 171.308594 L 52.808594 171.308594 Z M 52.808594 122.558594 " clip-rule="nonzero"/></clipPath><clipPath id="e9da5a8414"><path d="M 271.0625 125 L 315 125 L 315 169 L 271.0625 169 Z M 271.0625 125 " clip-rule="nonzero"/></clipPath><clipPath id="6275be68e4"><path d="M 271.0625 124.894531 L 315.3125 124.894531 L 315.3125 169.144531 L 271.0625 169.144531 Z M 271.0625 124.894531 " clip-rule="nonzero"/></clipPath></defs><g clip-path="url(#bacd5fee64)"><path fill="#16365f" d="M 216.34375 125.929688 C 209.039062 118.6875 197.175781 118.6875 189.871094 125.929688 L 186.640625 129.132812 L 183.410156 125.929688 C 176.105469 118.6875 164.238281 118.6875 156.933594 125.929688 C 149.628906 133.171875 149.628906 144.933594 156.933594 152.175781 L 186.011719 181.003906 C 186.171875 181.164062 186.40625 181.253906 186.640625 181.253906 C 186.871094 181.253906 187.105469 181.164062 187.269531 181.003906 L 216.34375 152.175781 C 223.648438 144.933594 223.648438 133.171875 216.34375 125.929688 Z M 215.085938 150.933594 L 186.640625 179.136719 L 158.191406 150.933594 C 151.585938 144.382812 151.585938 133.726562 158.191406 127.175781 C 161.367188 124.007812 165.640625 122.28125 170.179688 122.28125 C 174.722656 122.28125 178.976562 124.027344 182.171875 127.175781 L 186.011719 131.003906 C 186.351562 131.339844 186.925781 131.339844 187.269531 131.003906 L 191.125 127.175781 C 197.730469 120.628906 208.484375 120.628906 215.085938 127.175781 C 221.691406 133.726562 221.691406 144.382812 215.085938 150.933594 Z M 198.035156 145.574219 L 191.988281 145.574219 L 191.988281 139.578125 C 191.988281 138.121094 190.785156 136.929688 189.3125 136.929688 L 183.949219 136.929688 C 182.476562 136.929688 181.273438 138.121094 181.273438 139.578125 L 181.273438 145.574219 L 175.222656 145.574219 C 173.753906 145.574219 172.550781 146.769531 172.550781 148.226562 L 172.550781 153.546875 C 172.550781 155.007812 173.753906 156.199219 175.222656 156.199219 L 181.273438 156.199219 L 181.273438 162.195312 C 181.273438 163.65625 182.476562 164.847656 183.949219 164.847656 L 189.3125 164.847656 C 190.785156 164.847656 191.988281 163.65625 191.988281 162.195312 L 191.988281 156.199219 L 198.035156 156.199219 C 199.507812 156.199219 200.710938 155.007812 200.710938 153.546875 L 200.710938 148.226562 C 200.710938 146.769531 199.507812 145.574219 198.035156 145.574219 Z M 198.933594 153.546875 C 198.933594 154.046875 198.519531 154.4375 198.035156 154.4375 L 191.109375 154.4375 C 190.625 154.4375 190.230469 154.828125 190.230469 155.308594 L 190.230469 162.179688 C 190.230469 162.675781 189.816406 163.066406 189.332031 163.066406 L 183.949219 163.066406 C 183.445312 163.066406 183.050781 162.660156 183.050781 162.179688 L 183.050781 155.308594 C 183.050781 154.828125 182.65625 154.4375 182.171875 154.4375 L 175.242188 154.4375 C 174.738281 154.4375 174.34375 154.027344 174.34375 153.546875 L 174.34375 148.226562 C 174.34375 147.730469 174.757812 147.335938 175.242188 147.335938 L 182.171875 147.335938 C 182.65625 147.335938 183.050781 146.945312 183.050781 146.464844 L 183.050781 139.597656 C 183.050781 139.097656 183.460938 138.707031 183.949219 138.707031 L 189.3125 138.707031 C 189.816406 138.707031 190.210938 139.117188 190.210938 139.597656 L 190.210938 146.464844 C 190.210938 146.945312 190.605469 147.335938 191.089844 147.335938 L 198.019531 147.335938 C 198.519531 147.335938 198.917969 147.746094 198.917969 148.226562 L 198.917969 153.546875 Z M 208.734375 127.460938 C 208.339844 127.175781 207.78125 127.265625 207.496094 127.65625 C 207.207031 128.046875 207.296875 128.601562 207.710938 128.886719 C 207.78125 128.9375 214.53125 133.832031 212.269531 141.679688 C 212.125 142.140625 212.414062 142.640625 212.878906 142.765625 C 212.96875 142.78125 213.042969 142.800781 213.132812 142.800781 C 213.527344 142.800781 213.867188 142.550781 213.992188 142.160156 C 216.558594 133.136719 208.804688 127.515625 208.734375 127.460938 Z M 212.019531 144.703125 C 211.585938 144.472656 211.050781 144.613281 210.816406 145.042969 C 210.4375 145.699219 210.007812 146.359375 209.523438 147.015625 C 209.238281 147.410156 209.324219 147.960938 209.722656 148.246094 C 209.882812 148.351562 210.0625 148.40625 210.242188 148.40625 C 210.511719 148.40625 210.78125 148.28125 210.960938 148.050781 C 211.480469 147.335938 211.945312 146.609375 212.359375 145.894531 C 212.59375 145.46875 212.449219 144.933594 212.019531 144.703125 Z M 212.019531 144.703125 " fill-opacity="1" fill-rule="nonzero"/></g><g clip-path="url(#2337947b45)"><g clip-path="url(#df16b3d76f)"><path fill="#16365f" d="M 259.539062 199.890625 L 114.699219 199.890625 L 114.699219 93.96875 L 259.539062 93.96875 Z M 259.539062 199.890625 " fill-opacity="1" fill-rule="nonzero"/></g></g><g clip-path="url(#891cc0b9d8)"><path fill="#f5f5ef" d="M 227.65625 126.183594 L 259.089844 126.183594 L 259.089844 168.988281 L 227.65625 168.988281 Z M 227.65625 126.183594 " fill-opacity="1" fill-rule="nonzero"/></g><path stroke-linecap="round" transform="matrix(0.673507, 0, 0, 0.668805, 227.654886, 167.751011)" fill="none" stroke-linejoin="miter" d="M 0.999602 0.997239 L 45.681768 0.997239 " stroke="#16365f" stroke-width="2" stroke-opacity="1" stroke-miterlimit="4"/><path stroke-linecap="round" transform="matrix(0.673507, 0, 0, 0.668805, 227.654886, 126.184533)" fill="none" stroke-linejoin="miter" d="M 0.999602 0.997346 L 45.681768 0.997346 " stroke="#16365f" stroke-width="2" stroke-opacity="1" stroke-miterlimit="4"/><g clip-path="url(#6ccdca6cce)"><path fill="#f5f5ef" d="M 114.035156 126.183594 L 145.472656 126.183594 L 145.472656 168.988281 L 114.035156 168.988281 Z M 114.035156 126.183594 " fill-opacity="1" fill-rule="nonzero"/></g><path stroke-linecap="round" transform="matrix(0.673507, 0, 0, 0.668805, 114.037029, 167.751011)" fill="none" stroke-linejoin="miter" d="M 1.000596 0.997239 L 45.682762 0.997239 " stroke="#16365f" stroke-width="2" stroke-opacity="1" stroke-miterlimit="4"/><path stroke-linecap="round" transform="matrix(0.673507, 0, 0, 0.668805, 114.037029, 126.184533)" fill="none" stroke-linejoin="miter" d="M 1.000596 0.997346 L 45.682762 0.997346 " stroke="#16365f" stroke-width="2" stroke-opacity="1" stroke-miterlimit="4"/><path stroke-linecap="butt" transform="matrix(0.745297, 0, 0, 0.75, 167.872258, 310.361699)" fill="none" stroke-linejoin="miter" d="M -0.0015625 1.50211 L 52.34229 1.50211 " stroke="#16365f" stroke-width="3" stroke-opacity="1" stroke-miterlimit="4"/><g fill="#16365f" fill-opacity="1"><g transform="translate(59.760949, 237.752783)"><g><path d="M 14.789062 0 C 15.238281 0 15.472656 -0.230469 15.472656 -0.679688 L 15.472656 -3.453125 C 15.472656 -3.882812 15.238281 -4.132812 14.789062 -4.132812 L 7.1875 -4.132812 L 7.1875 -24.816406 C 7.1875 -25.265625 6.957031 -25.5 6.507812 -25.5 L 3.203125 -25.5 C 2.753906 -25.5 2.523438 -25.265625 2.523438 -24.816406 L 2.523438 -0.679688 C 2.523438 -0.230469 2.753906 0 3.203125 0 Z M 14.789062 0 "/></g></g></g><g fill="#16365f" fill-opacity="1"><g transform="translate(80.87964, 237.752783)"><g><path d="M 14.941406 0.597656 C 22.710938 0.597656 28.453125 -4.78125 28.453125 -12.75 C 28.453125 -20.699219 22.710938 -26.097656 14.941406 -26.097656 C 7.1875 -26.097656 1.460938 -20.699219 1.460938 -12.75 C 1.460938 -4.78125 7.1875 0.597656 14.941406 0.597656 Z M 14.941406 -3.734375 C 9.945312 -3.734375 6.140625 -7.335938 6.140625 -12.75 C 6.140625 -18.175781 9.925781 -21.761719 14.941406 -21.761719 C 19.953125 -21.761719 23.789062 -18.175781 23.789062 -12.75 C 23.789062 -7.320312 19.953125 -3.734375 14.941406 -3.734375 Z M 14.941406 -3.734375 "/></g></g></g><g fill="#16365f" fill-opacity="1"><g transform="translate(115.925436, 237.752783)"><g><path d="M 6.507812 0 C 6.957031 0 7.1875 -0.230469 7.1875 -0.679688 L 7.1875 -8.265625 L 12.152344 -8.265625 C 17.996094 -8.265625 21.132812 -11.371094 21.132812 -16.980469 C 21.132812 -22.113281 18.492188 -25.5 11.472656 -25.5 L 3.203125 -25.5 C 2.753906 -25.5 2.523438 -25.265625 2.523438 -24.816406 L 2.523438 -0.679688 C 2.523438 -0.230469 2.753906 0 3.203125 0 Z M 7.1875 -21.363281 L 10.875 -21.363281 C 12.699219 -21.363281 16.5 -21.332031 16.5 -16.949219 C 16.5 -12.433594 12.5 -12.382812 10.875 -12.382812 L 7.1875 -12.382812 Z M 7.1875 -21.363281 "/></g></g></g><g fill="#16365f" fill-opacity="1"><g transform="translate(143.385194, 237.752783)"><g><path d="M 12.167969 0.597656 C 17.578125 0.597656 22.046875 -2.007812 22.046875 -8.316406 L 22.046875 -24.816406 C 22.046875 -25.265625 21.8125 -25.5 21.363281 -25.5 L 17.960938 -25.5 C 17.53125 -25.5 17.28125 -25.265625 17.28125 -24.816406 L 17.28125 -9.214844 C 17.28125 -5.164062 15.386719 -3.703125 12.167969 -3.703125 C 9.015625 -3.703125 7.070312 -5.164062 7.070312 -9.214844 L 7.070312 -24.816406 C 7.070312 -25.265625 6.839844 -25.5 6.390625 -25.5 L 2.988281 -25.5 C 2.554688 -25.5 2.308594 -25.265625 2.308594 -24.816406 L 2.308594 -8.316406 C 2.308594 -2.007812 6.890625 0.597656 12.167969 0.597656 Z M 12.167969 0.597656 "/></g></g></g><g fill="#16365f" fill-opacity="1"><g transform="translate(172.836912, 237.752783)"><g><path d="M 5.875 0 C 6.324219 0 6.558594 -0.230469 6.558594 -0.679688 L 6.558594 -9.480469 C 6.558594 -12.484375 7.800781 -14.042969 10.011719 -14.042969 C 10.359375 -14.042969 10.824219 -13.992188 11.339844 -13.878906 C 11.769531 -13.777344 12.070312 -13.925781 12.167969 -14.34375 L 12.832031 -16.882812 C 12.933594 -17.28125 12.78125 -17.597656 12.382812 -17.710938 C 11.835938 -17.863281 11.289062 -17.945312 10.808594 -17.945312 C 9.03125 -17.945312 7.222656 -17.148438 5.992188 -15.121094 L 5.527344 -16.980469 C 5.429688 -17.398438 5.164062 -17.578125 4.78125 -17.578125 L 2.9375 -17.578125 C 2.507812 -17.578125 2.257812 -17.332031 2.257812 -16.898438 L 2.273438 -0.679688 C 2.273438 -0.230469 2.523438 0 2.953125 0 Z M 5.875 0 "/></g></g></g><g fill="#16365f" fill-opacity="1"><g transform="translate(191.532059, 237.752783)"><g><path d="M 17.664062 -17.578125 C 17.265625 -17.578125 17.015625 -17.398438 16.914062 -16.980469 L 16.417969 -15.140625 C 14.890625 -16.933594 12.617188 -17.945312 10.160156 -17.945312 C 5.195312 -17.945312 1.460938 -13.84375 1.460938 -8.78125 C 1.460938 -3.734375 5.195312 0.03125 10.160156 0.03125 C 12.269531 0.03125 14.292969 -0.730469 15.835938 -2.507812 L 15.835938 -0.5625 C 15.835938 2.855469 13.761719 4.167969 11.207031 4.167969 C 9.097656 4.167969 7.054688 3.285156 5.394531 1.941406 C 5.046875 1.644531 4.765625 1.625 4.464844 1.941406 L 3.105469 4.066406 C 2.820312 4.367188 2.804688 4.699219 3.121094 4.964844 C 5.527344 6.921875 8.417969 8.066406 11.421875 8.066406 C 16.46875 8.066406 20.167969 5.144531 20.167969 -0.664062 L 20.203125 -16.898438 C 20.203125 -17.332031 19.96875 -17.578125 19.539062 -17.578125 Z M 10.890625 -3.785156 C 8.050781 -3.785156 5.742188 -6.007812 5.742188 -8.964844 C 5.742188 -11.902344 8.050781 -14.125 10.890625 -14.125 C 13.710938 -14.125 16.035156 -11.902344 16.035156 -8.964844 C 16.035156 -6.007812 13.710938 -3.785156 10.890625 -3.785156 Z M 10.890625 -3.785156 "/></g></g></g><g fill="#16365f" fill-opacity="1"><g transform="translate(219.12461, 237.752783)"><g><path d="M 10.308594 -17.945312 C 5.296875 -17.945312 1.511719 -14.34375 1.511719 -8.78125 C 1.511719 -3.152344 5.5625 0.382812 10.492188 0.382812 C 13.164062 0.382812 15.769531 -0.746094 17.730469 -2.804688 C 18.078125 -3.152344 18.078125 -3.484375 17.746094 -3.734375 L 16.117188 -5.527344 C 15.804688 -5.777344 15.554688 -5.761719 15.238281 -5.460938 C 13.925781 -4.117188 12.234375 -3.402344 10.609375 -3.402344 C 8.050781 -3.402344 5.808594 -5.113281 5.695312 -8.183594 L 18.195312 -8.183594 C 18.675781 -8.183594 18.925781 -8.351562 18.925781 -8.949219 C 18.925781 -14.34375 15.320312 -17.945312 10.308594 -17.945312 Z M 10.390625 -14.410156 C 12.203125 -14.410156 13.960938 -13.429688 14.476562 -11.1875 L 5.992188 -11.1875 C 6.625 -13.445312 8.632812 -14.410156 10.390625 -14.410156 Z M 10.390625 -14.410156 "/></g></g></g><g fill="#16365f" fill-opacity="1"><g transform="translate(244.592405, 237.752783)"><g><path d="M 11.769531 -17.945312 C 9.8125 -17.945312 7.703125 -17.179688 5.941406 -15.453125 L 5.542969 -16.980469 C 5.445312 -17.398438 5.179688 -17.578125 4.796875 -17.578125 L 2.953125 -17.578125 C 2.523438 -17.578125 2.273438 -17.332031 2.273438 -16.898438 L 2.273438 -0.679688 C 2.273438 -0.230469 2.523438 0 2.953125 0 L 5.875 0 C 6.324219 0 6.558594 -0.230469 6.558594 -0.679688 L 6.558594 -10.144531 C 6.558594 -12.648438 8.300781 -14.175781 10.457031 -14.175781 C 12.667969 -14.175781 13.992188 -12.550781 13.992188 -10.242188 L 13.992188 -0.679688 C 13.992188 -0.230469 14.226562 0 14.675781 0 L 17.597656 0 C 18.027344 0 18.277344 -0.230469 18.277344 -0.679688 L 18.277344 -10.855469 C 18.277344 -14.308594 16.566406 -17.945312 11.769531 -17.945312 Z M 11.769531 -17.945312 "/></g></g></g><g fill="#16365f" fill-opacity="1"><g transform="translate(270.0602, 237.752783)"><g><path d="M 10.957031 0.382812 C 13.910156 0.382812 16.632812 -0.929688 18.277344 -3.039062 C 18.527344 -3.371094 18.460938 -3.667969 18.09375 -3.949219 L 16.035156 -5.742188 C 15.671875 -5.992188 15.386719 -5.894531 15.089844 -5.5625 C 14.175781 -4.265625 12.648438 -3.453125 10.957031 -3.453125 C 7.96875 -3.453125 5.695312 -5.675781 5.695312 -8.78125 C 5.695312 -11.902344 7.96875 -14.125 10.957031 -14.125 C 12.699219 -14.125 14.175781 -13.296875 15.105469 -12.003906 C 15.40625 -11.652344 15.703125 -11.585938 16.050781 -11.835938 L 18.09375 -13.59375 C 18.441406 -13.84375 18.527344 -14.210938 18.261719 -14.558594 C 16.582031 -16.632812 13.945312 -17.945312 10.957031 -17.945312 C 5.578125 -17.945312 1.460938 -14.175781 1.460938 -8.78125 C 1.460938 -3.402344 5.578125 0.382812 10.957031 0.382812 Z M 10.957031 0.382812 "/></g></g></g><g fill="#16365f" fill-opacity="1"><g transform="translate(294.880602, 237.752783)"><g><path d="M 10.308594 -17.945312 C 5.296875 -17.945312 1.511719 -14.34375 1.511719 -8.78125 C 1.511719 -3.152344 5.5625 0.382812 10.492188 0.382812 C 13.164062 0.382812 15.769531 -0.746094 17.730469 -2.804688 C 18.078125 -3.152344 18.078125 -3.484375 17.746094 -3.734375 L 16.117188 -5.527344 C 15.804688 -5.777344 15.554688 -5.761719 15.238281 -5.460938 C 13.925781 -4.117188 12.234375 -3.402344 10.609375 -3.402344 C 8.050781 -3.402344 5.808594 -5.113281 5.695312 -8.183594 L 18.195312 -8.183594 C 18.675781 -8.183594 18.925781 -8.351562 18.925781 -8.949219 C 18.925781 -14.34375 15.320312 -17.945312 10.308594 -17.945312 Z M 10.390625 -14.410156 C 12.203125 -14.410156 13.960938 -13.429688 14.476562 -11.1875 L 5.992188 -11.1875 C 6.625 -13.445312 8.632812 -14.410156 10.390625 -14.410156 Z M 10.390625 -14.410156 "/></g></g></g><g fill="#16365f" fill-opacity="1"><g transform="translate(78.481425, 272.934714)"><g><path d="M 3.03125 0.191406 C 4.417969 0.191406 5.820312 -0.394531 5.820312 -2.039062 C 5.820312 -3.410156 4.804688 -4.007812 3.878906 -4.460938 C 2.996094 -4.886719 2.28125 -5.164062 2.28125 -5.714844 C 2.28125 -6.152344 2.679688 -6.304688 3.199219 -6.304688 C 3.667969 -6.304688 4.242188 -6.1875 4.75 -5.988281 C 4.871094 -5.945312 4.960938 -5.992188 5.003906 -6.113281 L 5.328125 -7.144531 C 5.371094 -7.265625 5.332031 -7.355469 5.203125 -7.398438 C 4.523438 -7.632812 3.742188 -7.773438 3.148438 -7.773438 C 1.800781 -7.773438 0.527344 -7.15625 0.527344 -5.59375 C 0.527344 -4.398438 1.335938 -3.804688 2.234375 -3.332031 C 3.148438 -2.851562 4.0625 -2.542969 4.0625 -1.960938 C 4.0625 -1.496094 3.644531 -1.285156 3.019531 -1.285156 C 2.488281 -1.285156 1.796875 -1.425781 1.109375 -1.699219 C 0.988281 -1.742188 0.894531 -1.714844 0.847656 -1.585938 L 0.480469 -0.5 C 0.429688 -0.371094 0.472656 -0.285156 0.601562 -0.238281 C 1.53125 0.0742188 2.296875 0.191406 3.03125 0.191406 Z M 3.03125 0.191406 "/></g></g></g><g fill="#16365f" fill-opacity="1"><g transform="translate(86.388774, 272.934714)"><g><path d="M 4.039062 -7.582031 C 3.898438 -7.867188 3.671875 -7.867188 3.539062 -7.582031 L 0.15625 -0.242188 C 0.09375 -0.0976562 0.15625 0 0.304688 0 L 1.761719 0 C 1.875 0 1.953125 -0.0546875 1.996094 -0.15625 L 2.332031 -0.996094 L 5.242188 -0.996094 L 5.578125 -0.15625 C 5.617188 -0.0546875 5.695312 0 5.808594 0 L 7.265625 0 C 7.417969 0 7.480469 -0.0976562 7.417969 -0.242188 Z M 3.785156 -4.660156 L 4.71875 -2.324219 L 2.859375 -2.324219 Z M 3.785156 -4.660156 "/></g></g></g><g fill="#16365f" fill-opacity="1"><g transform="translate(95.648357, 272.934714)"><g><path d="M 2.230469 0 C 2.359375 0 2.429688 -0.0703125 2.429688 -0.203125 L 2.429688 -4.328125 L 6.675781 0 C 6.964844 0.292969 7.210938 0.171875 7.210938 -0.175781 L 7.210938 -7.378906 C 7.210938 -7.511719 7.136719 -7.582031 7.011719 -7.582031 L 5.742188 -7.582031 C 5.609375 -7.582031 5.539062 -7.511719 5.539062 -7.378906 L 5.539062 -3.351562 L 1.253906 -7.621094 C 0.980469 -7.878906 0.761719 -7.761719 0.761719 -7.410156 L 0.761719 -0.203125 C 0.761719 -0.0703125 0.828125 0 0.960938 0 Z M 2.230469 0 "/></g></g></g><g fill="#16365f" fill-opacity="1"><g transform="translate(105.297816, 272.934714)"><g><path d="M 3.496094 0 C 3.625 0 3.699219 -0.0703125 3.699219 -0.203125 L 3.699219 -6.089844 L 5.277344 -6.089844 C 5.410156 -6.089844 5.480469 -6.164062 5.480469 -6.292969 L 5.480469 -7.378906 C 5.480469 -7.511719 5.410156 -7.582031 5.277344 -7.582031 L 0.378906 -7.582031 C 0.25 -7.582031 0.175781 -7.511719 0.175781 -7.378906 L 0.175781 -6.292969 C 0.175781 -6.164062 0.25 -6.089844 0.378906 -6.089844 L 1.960938 -6.089844 L 1.960938 -0.203125 C 1.960938 -0.0703125 2.035156 0 2.164062 0 Z M 3.496094 0 "/></g></g></g><g fill="#16365f" fill-opacity="1"><g transform="translate(112.642558, 272.934714)"><g><path d="M 3.542969 -8.214844 C 3.648438 -8.214844 3.726562 -8.253906 3.785156 -8.332031 L 4.648438 -9.382812 C 4.757812 -9.527344 4.699219 -9.625 4.527344 -9.625 L 3.539062 -9.625 C 3.425781 -9.625 3.347656 -9.578125 3.292969 -9.488281 L 2.679688 -8.457031 C 2.597656 -8.324219 2.660156 -8.214844 2.820312 -8.214844 Z M 5.375 0 C 5.507812 0 5.578125 -0.0703125 5.578125 -0.203125 L 5.578125 -1.289062 C 5.578125 -1.417969 5.507812 -1.492188 5.375 -1.492188 L 2.472656 -1.492188 L 2.472656 -2.558594 L 4.980469 -2.558594 C 5.113281 -2.558594 5.183594 -2.625 5.183594 -2.757812 L 5.183594 -3.765625 C 5.183594 -3.898438 5.113281 -3.96875 4.980469 -3.96875 L 2.472656 -3.96875 L 2.472656 -6.089844 L 5.375 -6.089844 C 5.507812 -6.089844 5.578125 -6.164062 5.578125 -6.292969 L 5.578125 -7.378906 C 5.578125 -7.511719 5.507812 -7.582031 5.375 -7.582031 L 0.953125 -7.582031 C 0.820312 -7.582031 0.75 -7.511719 0.75 -7.378906 L 0.75 -0.203125 C 0.75 -0.0703125 0.820312 0 0.953125 0 Z M 5.375 0 "/></g></g></g><g fill="#16365f" fill-opacity="1"><g transform="translate(120.42653, 272.934714)"><g/></g></g><g fill="#16365f" fill-opacity="1"><g transform="translate(125.24447, 272.934714)"><g><path d="M 5.375 0 C 5.507812 0 5.578125 -0.0703125 5.578125 -0.203125 L 5.578125 -1.289062 C 5.578125 -1.417969 5.507812 -1.492188 5.375 -1.492188 L 2.472656 -1.492188 L 2.472656 -2.558594 L 4.980469 -2.558594 C 5.113281 -2.558594 5.183594 -2.625 5.183594 -2.757812 L 5.183594 -3.765625 C 5.183594 -3.898438 5.113281 -3.96875 4.980469 -3.96875 L 2.472656 -3.96875 L 2.472656 -6.089844 L 5.375 -6.089844 C 5.507812 -6.089844 5.578125 -6.164062 5.578125 -6.292969 L 5.578125 -7.378906 C 5.578125 -7.511719 5.507812 -7.582031 5.375 -7.582031 L 0.953125 -7.582031 C 0.820312 -7.582031 0.75 -7.511719 0.75 -7.378906 L 0.75 -0.203125 C 0.75 -0.0703125 0.820312 0 0.953125 0 Z M 5.375 0 "/></g></g></g><g fill="#16365f" fill-opacity="1"><g transform="translate(133.028442, 272.934714)"><g><path d="M 3.496094 0 C 3.625 0 3.699219 -0.0703125 3.699219 -0.203125 L 3.699219 -6.089844 L 5.277344 -6.089844 C 5.410156 -6.089844 5.480469 -6.164062 5.480469 -6.292969 L 5.480469 -7.378906 C 5.480469 -7.511719 5.410156 -7.582031 5.277344 -7.582031 L 0.378906 -7.582031 C 0.25 -7.582031 0.175781 -7.511719 0.175781 -7.378906 L 0.175781 -6.292969 C 0.175781 -6.164062 0.25 -6.089844 0.378906 -6.089844 L 1.960938 -6.089844 L 1.960938 -0.203125 C 1.960938 -0.0703125 2.035156 0 2.164062 0 Z M 3.496094 0 "/></g></g></g><g fill="#16365f" fill-opacity="1"><g transform="translate(140.373184, 272.934714)"><g/></g></g><g fill="#16365f" fill-opacity="1"><g transform="translate(145.191124, 272.934714)"><g><path d="M 3.03125 0.191406 C 4.417969 0.191406 5.820312 -0.394531 5.820312 -2.039062 C 5.820312 -3.410156 4.804688 -4.007812 3.878906 -4.460938 C 2.996094 -4.886719 2.28125 -5.164062 2.28125 -5.714844 C 2.28125 -6.152344 2.679688 -6.304688 3.199219 -6.304688 C 3.667969 -6.304688 4.242188 -6.1875 4.75 -5.988281 C 4.871094 -5.945312 4.960938 -5.992188 5.003906 -6.113281 L 5.328125 -7.144531 C 5.371094 -7.265625 5.332031 -7.355469 5.203125 -7.398438 C 4.523438 -7.632812 3.742188 -7.773438 3.148438 -7.773438 C 1.800781 -7.773438 0.527344 -7.15625 0.527344 -5.59375 C 0.527344 -4.398438 1.335938 -3.804688 2.234375 -3.332031 C 3.148438 -2.851562 4.0625 -2.542969 4.0625 -1.960938 C 4.0625 -1.496094 3.644531 -1.285156 3.019531 -1.285156 C 2.488281 -1.285156 1.796875 -1.425781 1.109375 -1.699219 C 0.988281 -1.742188 0.894531 -1.714844 0.847656 -1.585938 L 0.480469 -0.5 C 0.429688 -0.371094 0.472656 -0.285156 0.601562 -0.238281 C 1.53125 0.0742188 2.296875 0.191406 3.03125 0.191406 Z M 3.03125 0.191406 "/></g></g></g><g fill="#16365f" fill-opacity="1"><g transform="translate(153.098475, 272.934714)"><g><path d="M 3.542969 -8.214844 C 3.648438 -8.214844 3.726562 -8.253906 3.785156 -8.332031 L 4.648438 -9.382812 C 4.757812 -9.527344 4.699219 -9.625 4.527344 -9.625 L 3.539062 -9.625 C 3.425781 -9.625 3.347656 -9.578125 3.292969 -9.488281 L 2.679688 -8.457031 C 2.597656 -8.324219 2.660156 -8.214844 2.820312 -8.214844 Z M 5.375 0 C 5.507812 0 5.578125 -0.0703125 5.578125 -0.203125 L 5.578125 -1.289062 C 5.578125 -1.417969 5.507812 -1.492188 5.375 -1.492188 L 2.472656 -1.492188 L 2.472656 -2.558594 L 4.980469 -2.558594 C 5.113281 -2.558594 5.183594 -2.625 5.183594 -2.757812 L 5.183594 -3.765625 C 5.183594 -3.898438 5.113281 -3.96875 4.980469 -3.96875 L 2.472656 -3.96875 L 2.472656 -6.089844 L 5.375 -6.089844 C 5.507812 -6.089844 5.578125 -6.164062 5.578125 -6.292969 L 5.578125 -7.378906 C 5.578125 -7.511719 5.507812 -7.582031 5.375 -7.582031 L 0.953125 -7.582031 C 0.820312 -7.582031 0.75 -7.511719 0.75 -7.378906 L 0.75 -0.203125 C 0.75 -0.0703125 0.820312 0 0.953125 0 Z M 5.375 0 "/></g></g></g><g fill="#16365f" fill-opacity="1"><g transform="translate(160.882446, 272.934714)"><g><path d="M 4.496094 0.191406 C 5.855469 0.191406 6.96875 -0.320312 7.679688 -1.164062 C 7.761719 -1.257812 7.734375 -1.34375 7.628906 -1.425781 L 6.542969 -2.164062 C 6.4375 -2.234375 6.347656 -2.222656 6.265625 -2.121094 C 5.851562 -1.664062 5.234375 -1.382812 4.503906 -1.382812 C 3.140625 -1.382812 2.167969 -2.324219 2.167969 -3.792969 C 2.167969 -5.261719 3.140625 -6.199219 4.496094 -6.199219 C 5.234375 -6.199219 5.84375 -5.917969 6.265625 -5.460938 C 6.347656 -5.359375 6.441406 -5.347656 6.542969 -5.421875 L 7.628906 -6.160156 C 7.730469 -6.238281 7.75 -6.332031 7.660156 -6.433594 C 6.941406 -7.273438 5.835938 -7.773438 4.496094 -7.773438 C 2.117188 -7.773438 0.4375 -6.199219 0.4375 -3.792969 C 0.4375 -1.382812 2.113281 0.191406 4.496094 0.191406 Z M 4.496094 0.191406 "/></g></g></g><g fill="#16365f" fill-opacity="1"><g transform="translate(170.605936, 272.934714)"><g><path d="M 3.878906 0.191406 C 5.621094 0.191406 7.078125 -0.597656 7.078125 -2.519531 L 7.078125 -7.378906 C 7.078125 -7.511719 7.003906 -7.582031 6.875 -7.582031 L 5.515625 -7.582031 C 5.382812 -7.582031 5.3125 -7.511719 5.3125 -7.378906 L 5.3125 -2.925781 C 5.3125 -1.8125 4.796875 -1.378906 3.878906 -1.378906 C 2.972656 -1.378906 2.449219 -1.8125 2.449219 -2.925781 L 2.449219 -7.378906 C 2.449219 -7.511719 2.378906 -7.582031 2.246094 -7.582031 L 0.882812 -7.582031 C 0.753906 -7.582031 0.679688 -7.511719 0.679688 -7.378906 L 0.679688 -2.519531 C 0.679688 -0.597656 2.175781 0.191406 3.878906 0.191406 Z M 3.878906 0.191406 "/></g></g></g><g fill="#16365f" fill-opacity="1"><g transform="translate(180.043186, 272.934714)"><g><path d="M 5.355469 -2.792969 C 6.140625 -3.183594 6.570312 -3.984375 6.570312 -5.097656 C 6.570312 -6.5 5.894531 -7.582031 3.78125 -7.582031 L 0.953125 -7.582031 C 0.820312 -7.582031 0.75 -7.511719 0.75 -7.378906 L 0.75 -0.203125 C 0.75 -0.0703125 0.820312 0 0.953125 0 L 2.28125 0 C 2.410156 0 2.484375 -0.0703125 2.484375 -0.203125 L 2.484375 -2.527344 L 3.636719 -2.527344 L 4.835938 -0.152344 C 4.886719 -0.0507812 4.957031 0 5.070312 0 L 6.582031 0 C 6.730469 0 6.792969 -0.0976562 6.722656 -0.242188 Z M 3.511719 -6.089844 C 3.980469 -6.089844 4.851562 -6.085938 4.851562 -5.085938 C 4.851562 -4.023438 3.886719 -4.019531 3.511719 -4.019531 L 2.484375 -4.019531 L 2.484375 -6.089844 Z M 3.511719 -6.089844 "/></g></g></g><g fill="#16365f" fill-opacity="1"><g transform="translate(188.922757, 272.934714)"><g><path d="M 2.269531 0 C 2.402344 0 2.472656 -0.0703125 2.472656 -0.203125 L 2.472656 -7.378906 C 2.472656 -7.511719 2.402344 -7.582031 2.269531 -7.582031 L 0.953125 -7.582031 C 0.820312 -7.582031 0.75 -7.511719 0.75 -7.378906 L 0.75 -0.203125 C 0.75 -0.0703125 0.820312 0 0.953125 0 Z M 2.269531 0 "/></g></g></g><g fill="#16365f" fill-opacity="1"><g transform="translate(193.824589, 272.934714)"><g><path d="M 3.496094 0 C 3.625 0 3.699219 -0.0703125 3.699219 -0.203125 L 3.699219 -6.089844 L 5.277344 -6.089844 C 5.410156 -6.089844 5.480469 -6.164062 5.480469 -6.292969 L 5.480469 -7.378906 C 5.480469 -7.511719 5.410156 -7.582031 5.277344 -7.582031 L 0.378906 -7.582031 C 0.25 -7.582031 0.175781 -7.511719 0.175781 -7.378906 L 0.175781 -6.292969 C 0.175781 -6.164062 0.25 -6.089844 0.378906 -6.089844 L 1.960938 -6.089844 L 1.960938 -0.203125 C 1.960938 -0.0703125 2.035156 0 2.164062 0 Z M 3.496094 0 "/></g></g></g><g fill="#16365f" fill-opacity="1"><g transform="translate(201.169325, 272.934714)"><g><path d="M 3.542969 -8.214844 C 3.648438 -8.214844 3.726562 -8.253906 3.785156 -8.332031 L 4.648438 -9.382812 C 4.757812 -9.527344 4.699219 -9.625 4.527344 -9.625 L 3.539062 -9.625 C 3.425781 -9.625 3.347656 -9.578125 3.292969 -9.488281 L 2.679688 -8.457031 C 2.597656 -8.324219 2.660156 -8.214844 2.820312 -8.214844 Z M 5.375 0 C 5.507812 0 5.578125 -0.0703125 5.578125 -0.203125 L 5.578125 -1.289062 C 5.578125 -1.417969 5.507812 -1.492188 5.375 -1.492188 L 2.472656 -1.492188 L 2.472656 -2.558594 L 4.980469 -2.558594 C 5.113281 -2.558594 5.183594 -2.625 5.183594 -2.757812 L 5.183594 -3.765625 C 5.183594 -3.898438 5.113281 -3.96875 4.980469 -3.96875 L 2.472656 -3.96875 L 2.472656 -6.089844 L 5.375 -6.089844 C 5.507812 -6.089844 5.578125 -6.164062 5.578125 -6.292969 L 5.578125 -7.378906 C 5.578125 -7.511719 5.507812 -7.582031 5.375 -7.582031 L 0.953125 -7.582031 C 0.820312 -7.582031 0.75 -7.511719 0.75 -7.378906 L 0.75 -0.203125 C 0.75 -0.0703125 0.820312 0 0.953125 0 Z M 5.375 0 "/></g></g></g><g fill="#16365f" fill-opacity="1"><g transform="translate(208.95329, 272.934714)"><g/></g></g><g fill="#16365f" fill-opacity="1"><g transform="translate(213.771225, 272.934714)"><g><path d="M 4.039062 -7.582031 C 3.898438 -7.867188 3.671875 -7.867188 3.539062 -7.582031 L 0.15625 -0.242188 C 0.09375 -0.0976562 0.15625 0 0.304688 0 L 1.761719 0 C 1.875 0 1.953125 -0.0546875 1.996094 -0.15625 L 2.332031 -0.996094 L 5.242188 -0.996094 L 5.578125 -0.15625 C 5.617188 -0.0546875 5.695312 0 5.808594 0 L 7.265625 0 C 7.417969 0 7.480469 -0.0976562 7.417969 -0.242188 Z M 3.785156 -4.660156 L 4.71875 -2.324219 L 2.859375 -2.324219 Z M 3.785156 -4.660156 "/></g></g></g><g fill="#16365f" fill-opacity="1"><g transform="translate(223.030803, 272.934714)"><g><path d="M 5.816406 -7.582031 C 5.707031 -7.582031 5.628906 -7.527344 5.582031 -7.425781 L 3.796875 -2.921875 L 2.003906 -7.425781 C 1.964844 -7.527344 1.878906 -7.582031 1.773438 -7.582031 L 0.316406 -7.582031 C 0.164062 -7.582031 0.09375 -7.484375 0.164062 -7.339844 L 3.542969 0 C 3.683594 0.285156 3.910156 0.285156 4.042969 0 L 7.425781 -7.339844 C 7.492188 -7.484375 7.425781 -7.582031 7.273438 -7.582031 Z M 5.816406 -7.582031 "/></g></g></g><g fill="#16365f" fill-opacity="1"><g transform="translate(232.305187, 272.934714)"><g><path d="M 4.039062 -7.582031 C 3.898438 -7.867188 3.671875 -7.867188 3.539062 -7.582031 L 0.15625 -0.242188 C 0.09375 -0.0976562 0.15625 0 0.304688 0 L 1.761719 0 C 1.875 0 1.953125 -0.0546875 1.996094 -0.15625 L 2.332031 -0.996094 L 5.242188 -0.996094 L 5.578125 -0.15625 C 5.617188 -0.0546875 5.695312 0 5.808594 0 L 7.265625 0 C 7.417969 0 7.480469 -0.0976562 7.417969 -0.242188 Z M 3.785156 -4.660156 L 4.71875 -2.324219 L 2.859375 -2.324219 Z M 3.785156 -4.660156 "/></g></g></g><g fill="#16365f" fill-opacity="1"><g transform="translate(241.564765, 272.934714)"><g><path d="M 2.230469 0 C 2.359375 0 2.429688 -0.0703125 2.429688 -0.203125 L 2.429688 -4.328125 L 6.675781 0 C 6.964844 0.292969 7.210938 0.171875 7.210938 -0.175781 L 7.210938 -7.378906 C 7.210938 -7.511719 7.136719 -7.582031 7.011719 -7.582031 L 5.742188 -7.582031 C 5.609375 -7.582031 5.539062 -7.511719 5.539062 -7.378906 L 5.539062 -3.351562 L 1.253906 -7.621094 C 0.980469 -7.878906 0.761719 -7.761719 0.761719 -7.410156 L 0.761719 -0.203125 C 0.761719 -0.0703125 0.828125 0 0.960938 0 Z M 2.230469 0 "/></g></g></g><g fill="#16365f" fill-opacity="1"><g transform="translate(251.214221, 272.934714)"><g><path d="M 3.496094 0 C 3.625 0 3.699219 -0.0703125 3.699219 -0.203125 L 3.699219 -6.089844 L 5.277344 -6.089844 C 5.410156 -6.089844 5.480469 -6.164062 5.480469 -6.292969 L 5.480469 -7.378906 C 5.480469 -7.511719 5.410156 -7.582031 5.277344 -7.582031 L 0.378906 -7.582031 C 0.25 -7.582031 0.175781 -7.511719 0.175781 -7.378906 L 0.175781 -6.292969 C 0.175781 -6.164062 0.25 -6.089844 0.378906 -6.089844 L 1.960938 -6.089844 L 1.960938 -0.203125 C 1.960938 -0.0703125 2.035156 0 2.164062 0 Z M 3.496094 0 "/></g></g></g><g fill="#16365f" fill-opacity="1"><g transform="translate(258.558957, 272.934714)"><g/></g></g><g fill="#16365f" fill-opacity="1"><g transform="translate(263.376891, 272.934714)"><g><path d="M 3.496094 0 C 3.625 0 3.699219 -0.0703125 3.699219 -0.203125 L 3.699219 -6.089844 L 5.277344 -6.089844 C 5.410156 -6.089844 5.480469 -6.164062 5.480469 -6.292969 L 5.480469 -7.378906 C 5.480469 -7.511719 5.410156 -7.582031 5.277344 -7.582031 L 0.378906 -7.582031 C 0.25 -7.582031 0.175781 -7.511719 0.175781 -7.378906 L 0.175781 -6.292969 C 0.175781 -6.164062 0.25 -6.089844 0.378906 -6.089844 L 1.960938 -6.089844 L 1.960938 -0.203125 C 1.960938 -0.0703125 2.035156 0 2.164062 0 Z M 3.496094 0 "/></g></g></g><g fill="#16365f" fill-opacity="1"><g transform="translate(270.721627, 272.934714)"><g><path d="M 4.503906 0.191406 C 6.902344 0.191406 8.574219 -1.386719 8.574219 -3.792969 C 8.574219 -6.195312 6.902344 -7.773438 4.503906 -7.773438 C 2.109375 -7.773438 0.4375 -6.195312 0.4375 -3.792969 C 0.4375 -1.386719 2.109375 0.191406 4.503906 0.191406 Z M 4.503906 -1.382812 C 3.140625 -1.382812 2.167969 -2.324219 2.167969 -3.792969 C 2.167969 -5.261719 3.132812 -6.199219 4.503906 -6.199219 C 5.871094 -6.199219 6.847656 -5.261719 6.847656 -3.792969 C 6.847656 -2.320312 5.871094 -1.382812 4.503906 -1.382812 Z M 4.503906 -1.382812 "/></g></g></g><g fill="#16365f" fill-opacity="1"><g transform="translate(281.422272, 272.934714)"><g><path d="M 3.878906 0.191406 C 5.621094 0.191406 7.078125 -0.597656 7.078125 -2.519531 L 7.078125 -7.378906 C 7.078125 -7.511719 7.003906 -7.582031 6.875 -7.582031 L 5.515625 -7.582031 C 5.382812 -7.582031 5.3125 -7.511719 5.3125 -7.378906 L 5.3125 -2.925781 C 5.3125 -1.8125 4.796875 -1.378906 3.878906 -1.378906 C 2.972656 -1.378906 2.449219 -1.8125 2.449219 -2.925781 L 2.449219 -7.378906 C 2.449219 -7.511719 2.378906 -7.582031 2.246094 -7.582031 L 0.882812 -7.582031 C 0.753906 -7.582031 0.679688 -7.511719 0.679688 -7.378906 L 0.679688 -2.519531 C 0.679688 -0.597656 2.175781 0.191406 3.878906 0.191406 Z M 3.878906 0.191406 "/></g></g></g><g fill="#16365f" fill-opacity="1"><g transform="translate(290.859528, 272.934714)"><g><path d="M 3.496094 0 C 3.625 0 3.699219 -0.0703125 3.699219 -0.203125 L 3.699219 -6.089844 L 5.277344 -6.089844 C 5.410156 -6.089844 5.480469 -6.164062 5.480469 -6.292969 L 5.480469 -7.378906 C 5.480469 -7.511719 5.410156 -7.582031 5.277344 -7.582031 L 0.378906 -7.582031 C 0.25 -7.582031 0.175781 -7.511719 0.175781 -7.378906 L 0.175781 -6.292969 C 0.175781 -6.164062 0.25 -6.089844 0.378906 -6.089844 L 1.960938 -6.089844 L 1.960938 -0.203125 C 1.960938 -0.0703125 2.035156 0 2.164062 0 Z M 3.496094 0 "/></g></g></g><g clip-path="url(#d1c76343af)"><path fill="#16365f" d="M 102.46875 151.621094 C 99.546875 147.429688 94.328125 145.464844 89.402344 146.664062 L 87 143.214844 C 86.9375 143.125 86.839844 143.0625 86.730469 143.042969 C 86.625 143.023438 86.515625 143.050781 86.425781 143.113281 L 84.390625 144.550781 L 83.472656 143.238281 C 83.976562 141.945312 83.71875 140.285156 82.773438 138.925781 C 82.0625 137.910156 81.074219 137.195312 80.019531 136.914062 C 81.058594 136.039062 81.652344 134.460938 81.449219 132.75 C 81.285156 131.386719 80.648438 130.179688 79.703125 129.441406 C 79.28125 129.109375 78.816406 128.894531 78.335938 128.792969 C 79.4375 127.941406 80.046875 126.695312 79.816406 125.453125 C 79.636719 124.5 79.003906 123.699219 78.035156 123.195312 C 77.101562 122.710938 75.953125 122.5625 74.808594 122.777344 C 73.03125 123.113281 71.660156 124.265625 71.214844 125.625 C 70.957031 125.261719 70.628906 124.960938 70.226562 124.746094 C 69.519531 124.363281 68.667969 124.296875 67.828125 124.550781 C 66.683594 124.898438 65.660156 125.792969 65.019531 127 C 64.132812 128.664062 64.203125 130.53125 65.058594 131.730469 C 63.210938 131.871094 61.738281 133.808594 61.738281 136.175781 C 61.738281 137.835938 62.476562 139.34375 63.625 140.113281 L 63.625 141.71875 L 61.140625 141.71875 C 60.910156 141.71875 60.726562 141.902344 60.726562 142.132812 L 60.726562 146.347656 C 56.015625 148.21875 52.867188 152.851562 52.867188 157.972656 C 52.867188 164.183594 57.464844 169.507812 63.5625 170.355469 C 63.582031 170.359375 63.601562 170.359375 63.621094 170.359375 C 63.71875 170.359375 63.816406 170.324219 63.890625 170.257812 C 63.980469 170.179688 64.03125 170.066406 64.03125 169.949219 L 64.039062 166.570312 C 64.042969 166.371094 63.902344 166.203125 63.707031 166.164062 C 59.820312 165.414062 57 161.96875 57 157.972656 C 57 153.980469 59.816406 150.535156 63.703125 149.785156 C 64.722656 149.582031 65.855469 149.582031 66.902344 149.792969 C 70.757812 150.566406 73.554688 154.007812 73.554688 157.972656 C 73.554688 161.957031 70.742188 165.402344 66.863281 166.160156 C 66.671875 166.199219 66.53125 166.367188 66.53125 166.5625 L 66.511719 169.945312 C 66.511719 170.066406 66.5625 170.179688 66.652344 170.257812 C 66.742188 170.335938 66.863281 170.375 66.980469 170.355469 C 73.085938 169.515625 77.6875 164.191406 77.6875 157.972656 C 77.6875 152.851562 74.539062 148.222656 69.828125 146.347656 L 69.828125 142.132812 C 69.828125 141.902344 69.644531 141.71875 69.414062 141.71875 L 66.929688 141.71875 L 66.929688 140.113281 C 68.078125 139.34375 68.8125 137.839844 68.8125 136.175781 C 68.8125 134.902344 68.382812 133.75 67.699219 132.9375 C 67.945312 132.917969 68.195312 132.882812 68.445312 132.804688 C 69.589844 132.457031 70.617188 131.5625 71.257812 130.351562 C 71.570312 129.769531 71.757812 129.15625 71.839844 128.558594 C 72.125 128.871094 72.472656 129.144531 72.886719 129.359375 C 73.542969 129.699219 74.300781 129.875 75.089844 129.875 C 75.203125 129.875 75.320312 129.867188 75.4375 129.859375 C 74.660156 130.773438 74.246094 132.140625 74.421875 133.609375 C 74.585938 134.96875 75.222656 136.175781 76.167969 136.917969 C 76.476562 137.160156 76.8125 137.339844 77.160156 137.460938 C 75.726562 138.644531 75.628906 141.082031 76.980469 143.019531 C 77.910156 144.347656 79.324219 145.15625 80.667969 145.15625 C 80.703125 145.15625 80.738281 145.152344 80.769531 145.152344 L 81.683594 146.464844 L 79.648438 147.90625 C 79.464844 148.035156 79.417969 148.292969 79.550781 148.480469 L 81.957031 151.925781 C 79.167969 156.1875 79.234375 161.800781 82.15625 165.992188 C 84.546875 169.414062 88.40625 171.300781 92.347656 171.300781 C 94.261719 171.300781 96.195312 170.855469 97.984375 169.925781 C 98.089844 169.871094 98.164062 169.773438 98.195312 169.660156 C 98.222656 169.542969 98.199219 169.421875 98.132812 169.324219 L 96.207031 166.558594 C 96.09375 166.394531 95.878906 166.335938 95.699219 166.417969 C 92.089844 168.054688 87.816406 166.867188 85.542969 163.597656 C 83.261719 160.339844 83.601562 155.890625 86.347656 153.019531 C 86.722656 152.632812 87.132812 152.28125 87.558594 151.980469 C 88.011719 151.65625 88.492188 151.382812 88.976562 151.167969 C 92.570312 149.570312 96.824219 150.761719 99.085938 154.007812 C 101.359375 157.273438 101.019531 161.71875 98.28125 164.585938 C 98.148438 164.726562 98.128906 164.941406 98.242188 165.105469 L 100.160156 167.882812 C 100.226562 167.980469 100.335938 168.042969 100.453125 168.058594 C 100.570312 168.070312 100.691406 168.03125 100.777344 167.949219 C 105.289062 163.726562 106.015625 156.707031 102.46875 151.621094 Z M 67.023438 147.550781 C 66.785156 148.042969 66.671875 148.519531 66.617188 148.917969 C 65.746094 148.789062 64.84375 148.785156 63.988281 148.910156 C 63.917969 148.425781 63.78125 147.972656 63.578125 147.550781 C 63.375 147.132812 63.132812 146.804688 62.890625 146.546875 C 63.535156 146.410156 64.195312 146.335938 64.863281 146.3125 L 64.863281 146.71875 C 64.863281 146.945312 65.046875 147.128906 65.273438 147.128906 C 65.503906 147.128906 65.6875 146.945312 65.6875 146.71875 L 65.6875 146.3125 C 66.367188 146.335938 67.046875 146.414062 67.710938 146.558594 C 67.4375 146.847656 67.207031 147.179688 67.023438 147.550781 Z M 69.003906 142.542969 L 69.003906 146.050781 C 68.898438 146.015625 68.792969 145.980469 68.679688 145.949219 C 68.671875 145.949219 68.660156 145.945312 68.648438 145.941406 C 67.6875 145.667969 66.6875 145.523438 65.6875 145.492188 L 65.6875 144.515625 C 65.933594 144.371094 66.101562 144.105469 66.101562 143.800781 C 66.101562 143.34375 65.730469 142.972656 65.277344 142.972656 C 64.820312 142.972656 64.453125 143.34375 64.453125 143.800781 C 64.453125 144.105469 64.617188 144.371094 64.863281 144.511719 L 64.863281 145.488281 C 63.859375 145.523438 62.863281 145.667969 61.914062 145.941406 C 61.910156 145.941406 61.902344 145.945312 61.894531 145.949219 C 61.878906 145.953125 61.863281 145.957031 61.847656 145.964844 C 61.746094 145.992188 61.652344 146.027344 61.550781 146.058594 L 61.550781 142.542969 Z M 65.273438 140.640625 C 65.558594 140.640625 65.835938 140.59375 66.105469 140.511719 L 66.105469 141.71875 L 64.449219 141.71875 L 64.449219 140.511719 C 64.71875 140.59375 64.992188 140.640625 65.273438 140.640625 Z M 64.53125 139.671875 C 64.664062 139.398438 64.945312 139.210938 65.285156 139.210938 C 65.609375 139.210938 65.890625 139.394531 66.023438 139.671875 C 65.539062 139.859375 65.015625 139.859375 64.53125 139.671875 Z M 67.992188 136.175781 C 67.992188 137.4375 67.507812 138.582031 66.726562 139.246094 C 66.449219 138.730469 65.902344 138.386719 65.269531 138.386719 C 64.648438 138.386719 64.109375 138.726562 63.828125 139.246094 C 63.046875 138.585938 62.5625 137.4375 62.5625 136.175781 C 62.5625 134.171875 63.78125 132.542969 65.273438 132.542969 C 66.773438 132.542969 67.992188 134.171875 67.992188 136.175781 Z M 70.53125 129.964844 C 70.53125 129.964844 70.53125 129.964844 70.53125 129.96875 C 69.992188 130.984375 69.144531 131.730469 68.207031 132.015625 C 67.566406 132.210938 66.957031 132.164062 66.4375 131.886719 C 65.113281 131.175781 64.804688 129.15625 65.746094 127.386719 C 66.285156 126.371094 67.128906 125.625 68.066406 125.339844 C 68.328125 125.261719 68.582031 125.222656 68.828125 125.222656 C 69.1875 125.222656 69.53125 125.304688 69.835938 125.472656 C 71.160156 126.183594 71.472656 128.199219 70.53125 129.964844 Z M 73.265625 128.628906 C 72.527344 128.246094 72.046875 127.648438 71.914062 126.949219 C 71.640625 125.464844 73.007812 123.957031 74.960938 123.589844 C 75.253906 123.535156 75.546875 123.503906 75.835938 123.503906 C 76.492188 123.503906 77.121094 123.648438 77.65625 123.929688 C 78.398438 124.3125 78.878906 124.90625 79.007812 125.601562 C 79.285156 127.089844 77.917969 128.597656 75.960938 128.96875 C 74.996094 129.148438 74.039062 129.03125 73.265625 128.628906 Z M 76.675781 136.269531 C 75.902344 135.660156 75.378906 134.65625 75.242188 133.511719 C 75 131.519531 76.015625 129.75 77.5 129.570312 C 77.582031 129.558594 77.667969 129.554688 77.75 129.554688 C 78.25 129.554688 78.742188 129.734375 79.195312 130.089844 C 79.96875 130.695312 80.492188 131.703125 80.628906 132.847656 C 80.871094 134.839844 79.855469 136.609375 78.371094 136.789062 C 77.789062 136.863281 77.203125 136.679688 76.675781 136.269531 Z M 80.441406 144.320312 C 79.429688 144.234375 78.378906 143.582031 77.65625 142.546875 C 76.511719 140.902344 76.574219 138.863281 77.800781 137.996094 C 78.164062 137.738281 78.597656 137.605469 79.070312 137.605469 C 79.226562 137.605469 79.382812 137.621094 79.546875 137.648438 C 80.511719 137.820312 81.441406 138.453125 82.097656 139.394531 C 82.816406 140.429688 83.070312 141.652344 82.808594 142.644531 C 82.28125 142.386719 81.636719 142.421875 81.125 142.785156 C 80.621094 143.144531 80.375 143.738281 80.441406 144.320312 Z M 81.613281 143.449219 C 81.757812 143.347656 81.925781 143.296875 82.089844 143.296875 C 82.226562 143.296875 82.359375 143.335938 82.480469 143.398438 C 82.335938 143.617188 82.160156 143.800781 81.949219 143.949219 C 81.738281 144.097656 81.507812 144.199219 81.265625 144.261719 C 81.214844 143.960938 81.339844 143.644531 81.613281 143.449219 Z M 81.667969 145 C 81.9375 144.910156 82.191406 144.785156 82.425781 144.621094 C 82.65625 144.457031 82.855469 144.261719 83.03125 144.039062 L 83.71875 145.027344 L 82.359375 145.988281 Z M 87.082031 151.304688 C 86.734375 151.550781 86.402344 151.835938 86.082031 152.140625 C 85.8125 151.847656 85.449219 151.527344 84.976562 151.261719 C 84.570312 151.039062 84.183594 150.910156 83.839844 150.839844 C 84.289062 150.355469 84.789062 149.910156 85.324219 149.503906 L 85.554688 149.835938 C 85.632812 149.949219 85.761719 150.011719 85.890625 150.011719 C 85.972656 150.011719 86.054688 149.988281 86.128906 149.9375 C 86.3125 149.804688 86.359375 149.550781 86.230469 149.363281 L 85.996094 149.027344 C 86.570312 148.648438 87.167969 148.320312 87.78125 148.058594 C 87.734375 148.40625 87.722656 148.808594 87.792969 149.261719 C 87.867188 149.726562 88.015625 150.175781 88.234375 150.609375 C 87.839844 150.808594 87.453125 151.042969 87.082031 151.304688 Z M 88.238281 146.996094 C 88.21875 147.003906 88.203125 147.011719 88.1875 147.019531 C 87.257812 147.34375 86.367188 147.792969 85.523438 148.351562 L 84.96875 147.554688 C 85.085938 147.296875 85.074219 146.984375 84.902344 146.738281 C 84.777344 146.554688 84.59375 146.433594 84.378906 146.394531 C 84.15625 146.351562 83.9375 146.398438 83.742188 146.535156 C 83.375 146.800781 83.292969 147.320312 83.550781 147.683594 C 83.675781 147.867188 83.867188 147.988281 84.085938 148.027344 C 84.132812 148.035156 84.183594 148.039062 84.230469 148.039062 C 84.25 148.039062 84.273438 148.03125 84.292969 148.027344 L 84.851562 148.824219 C 84.042969 149.4375 83.3125 150.136719 82.6875 150.914062 C 82.609375 151.007812 82.539062 151.113281 82.464844 151.210938 L 80.457031 148.34375 L 82.496094 146.902344 L 86.558594 144.027344 L 88.5625 146.898438 C 88.453125 146.929688 88.34375 146.960938 88.238281 146.996094 Z M 88.238281 146.996094 " fill-opacity="1" fill-rule="nonzero"/></g><g clip-path="url(#e9da5a8414)"><path fill="#ffffff" d="M 309.730469 125.246094 L 276.632812 125.246094 C 273.746094 125.246094 271.40625 127.585938 271.40625 130.472656 L 271.40625 163.570312 C 271.40625 166.457031 273.746094 168.796875 276.632812 168.796875 L 309.730469 168.796875 C 312.617188 168.796875 314.957031 166.457031 314.957031 163.570312 L 314.957031 130.472656 C 314.957031 127.585938 312.617188 125.246094 309.730469 125.246094 " fill-opacity="1" fill-rule="nonzero"/></g><g clip-path="url(#6275be68e4)"><path fill="#e8e7e6" d="M 276.632812 125.59375 C 273.941406 125.59375 271.753906 127.78125 271.753906 130.472656 L 271.753906 163.570312 C 271.753906 166.257812 273.941406 168.445312 276.632812 168.445312 L 309.730469 168.445312 C 312.421875 168.445312 314.609375 166.257812 314.609375 163.570312 L 314.609375 130.472656 C 314.609375 127.78125 312.421875 125.59375 309.730469 125.59375 Z M 309.730469 169.144531 L 276.632812 169.144531 C 273.558594 169.144531 271.058594 166.644531 271.058594 163.570312 L 271.058594 130.472656 C 271.058594 127.398438 273.558594 124.894531 276.632812 124.894531 L 309.730469 124.894531 C 312.804688 124.894531 315.304688 127.398438 315.304688 130.472656 L 315.304688 163.570312 C 315.304688 166.644531 312.804688 169.144531 309.730469 169.144531 " fill-opacity="1" fill-rule="nonzero"/></g><path fill="#16365f" d="M 309.152344 127.914062 L 277.214844 127.914062 C 275.480469 127.914062 274.078125 129.320312 274.078125 131.050781 L 274.078125 162.988281 C 274.078125 164.722656 275.480469 166.125 277.214844 166.125 L 309.152344 166.125 C 310.882812 166.125 312.285156 164.722656 312.285156 162.988281 L 312.285156 131.050781 C 312.285156 129.320312 310.882812 127.914062 309.152344 127.914062 " fill-opacity="1" fill-rule="nonzero"/><path fill="#16365f" d="M 292.121094 132.65625 L 292.296875 132.65625 C 292.421875 132.65625 292.394531 132.796875 292.4375 132.875 C 292.554688 133.078125 292.746094 133.125 292.96875 133.226562 C 293.167969 133.320312 293.515625 133.214844 293.480469 133.632812 C 293.472656 133.71875 293.621094 133.691406 293.699219 133.691406 C 293.988281 133.695312 294.277344 133.6875 294.566406 133.695312 C 295 133.710938 295.285156 134.019531 295.28125 134.445312 C 295.277344 134.878906 294.992188 135.171875 294.558594 135.183594 C 294.28125 135.191406 294.003906 135.183594 293.726562 135.1875 C 293.605469 135.1875 293.429688 135.140625 293.460938 135.363281 C 293.484375 135.539062 293.320312 135.804688 293.648438 135.859375 C 294.246094 135.960938 294.84375 135.953125 295.441406 135.863281 C 295.535156 135.847656 295.625 135.8125 295.640625 135.6875 C 295.691406 135.261719 296.007812 135.144531 296.355469 135.09375 C 297.292969 134.957031 298.203125 135.152344 299.101562 135.359375 C 300.8125 135.746094 302.332031 136.515625 303.585938 137.777344 C 303.800781 137.996094 304.070312 137.988281 304.328125 137.925781 C 304.515625 137.882812 304.574219 137.71875 304.527344 137.519531 C 304.441406 137.164062 304.253906 136.863281 304.003906 136.617188 C 302.226562 134.886719 300.1875 133.601562 297.78125 132.964844 C 297.5625 132.910156 297.328125 132.898438 297.101562 132.871094 C 297.054688 132.863281 297.003906 132.863281 296.960938 132.851562 C 296.722656 132.777344 296.46875 132.671875 296.429688 132.414062 C 296.390625 132.132812 296.664062 132.046875 296.867188 131.953125 C 297.167969 131.8125 297.476562 131.855469 297.785156 131.941406 C 298.46875 132.132812 299.074219 132.527344 299.753906 132.738281 C 300.550781 132.980469 301.351562 133.1875 302.191406 133.195312 C 302.445312 133.199219 302.695312 133.164062 302.921875 133.042969 C 303.039062 132.980469 303.160156 132.902344 303.109375 132.730469 C 303.066406 132.574219 302.964844 132.546875 302.8125 132.542969 C 302.191406 132.523438 301.65625 132.238281 301.128906 131.949219 C 300.007812 131.328125 298.882812 130.738281 297.617188 130.476562 C 296.964844 130.34375 296.3125 130.269531 295.648438 130.28125 C 295.023438 130.285156 294.402344 130.308594 293.808594 130.5625 C 293.460938 130.710938 293.144531 130.664062 292.808594 130.664062 C 292.484375 130.664062 292.441406 130.707031 292.441406 131.0625 C 292.441406 131.246094 292.464844 131.546875 292.28125 131.546875 L 292.121094 131.546875 Z M 291.65625 133.957031 C 290.972656 133.957031 290.285156 133.957031 289.597656 133.957031 C 288.679688 133.957031 288.074219 134.359375 287.722656 135.21875 C 287.648438 135.394531 287.589844 135.582031 287.546875 135.773438 C 287.464844 136.105469 287.394531 136.386719 286.957031 136.453125 C 286.617188 136.5 286.46875 136.847656 286.363281 137.171875 C 285.441406 140.050781 284.511719 142.925781 283.585938 145.804688 C 282.964844 147.734375 282.351562 149.664062 281.734375 151.597656 C 281.703125 151.699219 281.664062 151.804688 281.636719 151.910156 C 281.578125 152.15625 281.625 152.3125 281.914062 152.386719 C 282.949219 152.652344 283.980469 152.949219 285.011719 153.230469 C 285.398438 153.332031 285.488281 153.277344 285.574219 152.867188 C 285.824219 151.730469 286.066406 150.589844 286.308594 149.445312 C 287.09375 145.761719 287.878906 142.078125 288.660156 138.394531 C 288.710938 138.15625 288.757812 137.917969 288.804688 137.679688 C 288.878906 137.300781 288.777344 136.972656 288.476562 136.734375 C 288.328125 136.617188 288.296875 136.503906 288.347656 136.335938 C 288.398438 136.171875 288.4375 136.007812 288.488281 135.84375 C 288.710938 135.113281 288.984375 134.90625 289.738281 134.90625 C 291.144531 134.90625 292.96875 134.90625 294.378906 134.910156 C 294.632812 134.910156 294.871094 134.886719 294.972656 134.601562 C 295.097656 134.246094 294.867188 133.964844 294.421875 133.960938 C 293.640625 133.949219 292.441406 133.957031 291.65625 133.957031 Z M 300.515625 162.886719 C 300.515625 163.816406 299.925781 164.414062 299.007812 164.414062 C 296.140625 164.414062 293.277344 164.414062 290.414062 164.414062 C 289.316406 164.414062 288.773438 163.867188 288.773438 162.761719 C 288.773438 156.050781 288.773438 149.335938 288.773438 142.625 C 288.773438 142.210938 288.800781 141.796875 288.863281 141.386719 C 289.207031 139.203125 290.78125 137.65625 292.9375 137.386719 C 293.292969 137.34375 293.621094 137.15625 293.652344 136.816406 C 293.71875 136.136719 294.050781 136.222656 294.285156 136.222656 C 294.441406 136.222656 294.804688 136.21875 294.960938 136.21875 C 295.226562 136.21875 295.441406 136.261719 295.5 136.542969 C 295.617188 137.109375 295.910156 137.351562 296.472656 137.390625 C 297.296875 137.449219 298.011719 137.773438 298.640625 138.285156 C 299.957031 139.355469 300.507812 140.785156 300.511719 142.453125 C 300.519531 145.78125 300.515625 149.105469 300.515625 152.433594 C 300.515625 155.917969 300.515625 159.402344 300.515625 162.886719 " fill-opacity="1" fill-rule="nonzero"/><path fill="#ffffff" d="M 291.734375 132.214844 L 291.910156 132.214844 C 292.035156 132.214844 292.007812 132.355469 292.054688 132.433594 C 292.167969 132.636719 292.359375 132.683594 292.585938 132.785156 C 292.78125 132.878906 293.128906 132.773438 293.09375 133.1875 C 293.089844 133.277344 293.234375 133.246094 293.3125 133.25 C 293.601562 133.253906 293.890625 133.242188 294.179688 133.253906 C 294.613281 133.269531 294.898438 133.578125 294.894531 134.003906 C 294.890625 134.4375 294.605469 134.730469 294.171875 134.742188 C 293.894531 134.75 293.617188 134.742188 293.339844 134.746094 C 293.21875 134.746094 293.042969 134.699219 293.074219 134.921875 C 293.097656 135.097656 292.933594 135.363281 293.261719 135.417969 C 293.859375 135.519531 294.457031 135.511719 295.054688 135.417969 C 295.148438 135.40625 295.238281 135.371094 295.253906 135.242188 C 295.308594 134.820312 295.625 134.703125 295.972656 134.652344 C 296.90625 134.511719 297.816406 134.710938 298.714844 134.914062 C 300.425781 135.304688 301.945312 136.074219 303.199219 137.335938 C 303.417969 137.554688 303.683594 137.546875 303.945312 137.484375 C 304.132812 137.441406 304.1875 137.277344 304.140625 137.078125 C 304.054688 136.722656 303.871094 136.421875 303.617188 136.175781 C 301.839844 134.445312 299.800781 133.15625 297.394531 132.523438 C 297.175781 132.464844 296.941406 132.457031 296.71875 132.425781 C 296.667969 132.421875 296.621094 132.421875 296.574219 132.410156 C 296.335938 132.335938 296.085938 132.230469 296.046875 131.972656 C 296.003906 131.691406 296.277344 131.601562 296.480469 131.507812 C 296.78125 131.371094 297.089844 131.410156 297.398438 131.496094 C 298.082031 131.691406 298.6875 132.085938 299.371094 132.292969 C 300.164062 132.539062 300.964844 132.746094 301.804688 132.753906 C 302.058594 132.757812 302.3125 132.71875 302.539062 132.597656 C 302.652344 132.539062 302.773438 132.460938 302.726562 132.289062 C 302.683594 132.132812 302.578125 132.101562 302.425781 132.097656 C 301.804688 132.082031 301.269531 131.796875 300.742188 131.503906 C 299.625 130.886719 298.496094 130.292969 297.230469 130.035156 C 296.582031 129.902344 295.925781 129.828125 295.261719 129.839844 C 294.636719 129.84375 294.015625 129.863281 293.421875 130.121094 C 293.078125 130.269531 292.757812 130.222656 292.421875 130.222656 C 292.097656 130.222656 292.058594 130.265625 292.058594 130.621094 C 292.058594 130.804688 292.082031 131.105469 291.894531 131.105469 L 291.734375 131.105469 Z M 291.273438 133.515625 C 290.585938 133.515625 289.898438 133.515625 289.214844 133.515625 C 288.292969 133.515625 287.6875 133.917969 287.335938 134.777344 C 287.261719 134.953125 287.207031 135.140625 287.160156 135.328125 C 287.078125 135.660156 287.011719 135.945312 286.570312 136.007812 C 286.230469 136.058594 286.085938 136.402344 285.980469 136.730469 C 285.054688 139.609375 284.125 142.484375 283.199219 145.359375 C 282.578125 147.289062 281.964844 149.222656 281.347656 151.152344 C 281.316406 151.257812 281.277344 151.359375 281.253906 151.46875 C 281.191406 151.714844 281.238281 151.871094 281.527344 151.945312 C 282.566406 152.210938 283.59375 152.503906 284.625 152.785156 C 285.011719 152.890625 285.101562 152.835938 285.191406 152.425781 C 285.4375 151.285156 285.679688 150.144531 285.925781 149.003906 C 286.707031 145.320312 287.492188 141.636719 288.277344 137.953125 C 288.328125 137.714844 288.371094 137.476562 288.417969 137.238281 C 288.492188 136.859375 288.390625 136.527344 288.09375 136.292969 C 287.941406 136.175781 287.910156 136.0625 287.964844 135.894531 C 288.015625 135.730469 288.050781 135.566406 288.101562 135.402344 C 288.324219 134.667969 288.597656 134.464844 289.351562 134.464844 C 290.757812 134.464844 292.585938 134.464844 293.992188 134.464844 C 294.246094 134.464844 294.484375 134.445312 294.585938 134.160156 C 294.710938 133.800781 294.480469 133.523438 294.035156 133.515625 C 293.253906 133.507812 292.054688 133.515625 291.273438 133.515625 Z M 300.128906 162.445312 C 300.128906 163.375 299.539062 163.972656 298.621094 163.972656 C 295.757812 163.972656 292.890625 163.972656 290.027344 163.972656 C 288.929688 163.972656 288.386719 163.425781 288.386719 162.320312 C 288.386719 155.605469 288.386719 148.894531 288.386719 142.179688 C 288.386719 141.765625 288.414062 141.355469 288.480469 140.945312 C 288.824219 138.761719 290.394531 137.214844 292.550781 136.945312 C 292.90625 136.902344 293.234375 136.710938 293.265625 136.375 C 293.332031 135.695312 293.667969 135.78125 293.898438 135.78125 C 294.054688 135.78125 294.417969 135.777344 294.574219 135.777344 C 294.839844 135.777344 295.058594 135.820312 295.113281 136.101562 C 295.230469 136.667969 295.527344 136.910156 296.089844 136.949219 C 296.910156 137.003906 297.625 137.332031 298.257812 137.84375 C 299.570312 138.910156 300.125 140.34375 300.125 142.011719 C 300.132812 145.335938 300.128906 148.664062 300.128906 151.988281 C 300.128906 155.476562 300.128906 158.960938 300.128906 162.445312 " fill-opacity="1" fill-rule="nonzero"/><g fill="#16365f" fill-opacity="1"><g transform="translate(114.439205, 156.938446)"><g><path d="M 12.835938 0 C 13.175781 0 13.351562 -0.175781 13.351562 -0.515625 L 13.351562 -1.71875 C 13.351562 -2.046875 13.175781 -2.222656 12.835938 -2.222656 L 5.714844 -2.222656 L 9.570312 -6.84375 C 11.71875 -9.40625 13.3125 -11.140625 13.3125 -13.851562 C 13.3125 -17.242188 10.648438 -19.691406 7.273438 -19.691406 C 4.257812 -19.691406 2.171875 -17.847656 1.46875 -15.007812 C 1.394531 -14.683594 1.53125 -14.480469 1.859375 -14.417969 L 3.175781 -14.167969 C 3.492188 -14.117188 3.679688 -14.265625 3.769531 -14.582031 C 4.257812 -16.378906 5.5 -17.46875 7.320312 -17.46875 C 9.332031 -17.46875 10.925781 -15.898438 10.925781 -13.851562 C 10.925781 -12.058594 9.695312 -10.648438 8.328125 -9.003906 L 1.332031 -0.640625 C 1.054688 -0.300781 1.191406 0 1.621094 0 Z M 12.835938 0 "/></g></g></g><g fill="#16365f" fill-opacity="1"><g transform="translate(129.33376, 156.938446)"><g><path d="M 12.082031 -5.800781 L 12.082031 -18.777344 C 12.082031 -19.113281 11.90625 -19.292969 11.566406 -19.292969 L 10.222656 -19.292969 C 9.972656 -19.292969 9.769531 -19.191406 9.609375 -18.953125 L 1.269531 -6.089844 C 1.144531 -5.863281 1.082031 -5.703125 1.082031 -5.464844 L 1.082031 -4.09375 C 1.082031 -3.753906 1.269531 -3.578125 1.59375 -3.578125 L 9.707031 -3.578125 L 9.707031 -0.515625 C 9.707031 -0.175781 9.882812 0 10.222656 0 L 11.566406 0 C 11.90625 0 12.082031 -0.175781 12.082031 -0.515625 L 12.082031 -3.578125 L 13.941406 -3.578125 C 14.28125 -3.578125 14.457031 -3.753906 14.457031 -4.09375 L 14.457031 -5.289062 C 14.457031 -5.625 14.28125 -5.800781 13.941406 -5.800781 Z M 9.707031 -15.484375 L 9.707031 -5.800781 L 3.617188 -5.800781 Z M 9.707031 -15.484375 "/></g></g></g><g fill="#16365f" fill-opacity="1"><g transform="translate(237.531231, 156.938446)"><g><path d="M 1.832031 -19.292969 C 1.496094 -19.292969 1.320312 -19.113281 1.320312 -18.777344 L 1.320312 -17.558594 C 1.320312 -17.230469 1.496094 -17.042969 1.832031 -17.042969 L 11.039062 -17.042969 L 1.304688 -0.617188 C 1.105469 -0.25 1.242188 0 1.644531 0 L 3.289062 0 C 3.578125 0 3.78125 -0.101562 3.90625 -0.339844 L 14.617188 -18.675781 C 14.820312 -19.039062 14.683594 -19.292969 14.28125 -19.292969 Z M 1.832031 -19.292969 "/></g></g></g></svg>