<svg xmlns="http://www.w3.org/2000/svg" xmlns:xlink="http://www.w3.org/1999/xlink" width="574" zoomAndPan="magnify" viewBox="0 0 750 749.999995" height="507" preserveAspectRatio="xMidYMid meet" version="1.0"><defs><clipPath id="2e5c2a64d0"><path d="M 353.914062 279.417969 L 431.007812 279.417969 L 431.007812 420.433594 L 353.914062 420.433594 Z M 353.914062 279.417969 " clip-rule="nonzero"/></clipPath><clipPath id="7f2b8c9de8"><path d="M 353.914062 308 L 426 308 L 426 378 L 353.914062 378 Z M 353.914062 308 " clip-rule="nonzero"/></clipPath><clipPath id="2c9119d51e"><path d="M 649 22.5 L 663 22.5 L 663 78 L 649 78 Z M 649 22.5 " clip-rule="nonzero"/></clipPath><clipPath id="7c1bc7e652"><path d="M 255 386 L 520 386 L 520 727.5 L 255 727.5 Z M 255 386 " clip-rule="nonzero"/></clipPath><clipPath id="cb5f2da6f1"><path d="M 239 462 L 348 462 L 348 727.5 L 239 727.5 Z M 239 462 " clip-rule="nonzero"/></clipPath><clipPath id="90e55785ee"><path d="M 236 433 L 413 433 L 413 727.5 L 236 727.5 Z M 236 433 " clip-rule="nonzero"/></clipPath><clipPath id="b7d6fb8b4c"><path d="M 399 529 L 523 529 L 523 727.5 L 399 727.5 Z M 399 529 " clip-rule="nonzero"/></clipPath><clipPath id="2d6c4c3839"><path d="M 570 94 L 681 94 L 681 218 L 570 218 Z M 570 94 " clip-rule="nonzero"/></clipPath><clipPath id="212bc00cf5"><path d="M 680.703125 217.472656 L 570.035156 217.472656 L 570.035156 149.855469 C 570.035156 146.195312 570.390625 142.574219 571.105469 138.984375 C 571.820312 135.398438 572.875 131.914062 574.273438 128.535156 C 575.675781 125.15625 577.390625 121.945312 579.421875 118.902344 C 581.457031 115.863281 583.765625 113.046875 586.351562 110.460938 C 588.9375 107.875 591.753906 105.566406 594.792969 103.53125 C 597.835938 101.5 601.046875 99.785156 604.425781 98.382812 C 607.804688 96.984375 611.289062 95.929688 614.875 95.214844 C 618.464844 94.5 622.085938 94.144531 625.746094 94.144531 C 629.355469 94.144531 632.925781 94.496094 636.464844 95.199219 C 640.007812 95.902344 643.441406 96.945312 646.777344 98.328125 C 650.109375 99.707031 653.277344 101.402344 656.277344 103.40625 C 659.277344 105.410156 662.054688 107.6875 664.605469 110.242188 C 667.160156 112.792969 669.4375 115.570312 671.441406 118.570312 C 673.445312 121.570312 675.140625 124.738281 676.519531 128.070312 C 677.902344 131.40625 678.945312 134.839844 679.648438 138.378906 C 680.351562 141.917969 680.703125 145.492188 680.703125 149.101562 Z M 680.703125 217.472656 " clip-rule="nonzero"/></clipPath><clipPath id="8e8ae0e668"><path d="M 629 94 L 681 94 L 681 218 L 629 218 Z M 629 94 " clip-rule="nonzero"/></clipPath><clipPath id="f5b63d8053"><path d="M 680.703125 217.472656 L 570.035156 217.472656 L 570.035156 149.855469 C 570.035156 146.195312 570.390625 142.574219 571.105469 138.984375 C 571.820312 135.398438 572.875 131.914062 574.273438 128.535156 C 575.675781 125.15625 577.390625 121.945312 579.421875 118.902344 C 581.457031 115.863281 583.765625 113.046875 586.351562 110.460938 C 588.9375 107.875 591.753906 105.566406 594.792969 103.53125 C 597.835938 101.5 601.046875 99.785156 604.425781 98.382812 C 607.804688 96.984375 611.289062 95.929688 614.875 95.214844 C 618.464844 94.5 622.085938 94.144531 625.746094 94.144531 C 629.355469 94.144531 632.925781 94.496094 636.464844 95.199219 C 640.007812 95.902344 643.441406 96.945312 646.777344 98.328125 C 650.109375 99.707031 653.277344 101.402344 656.277344 103.40625 C 659.277344 105.410156 662.054688 107.6875 664.605469 110.242188 C 667.160156 112.792969 669.4375 115.570312 671.441406 118.570312 C 673.445312 121.570312 675.140625 124.738281 676.519531 128.070312 C 677.902344 131.40625 678.945312 134.839844 679.648438 138.378906 C 680.351562 141.917969 680.703125 145.492188 680.703125 149.101562 Z M 680.703125 217.472656 " clip-rule="nonzero"/></clipPath></defs><path fill="#2d1929" d="M 387.832031 309.324219 L 323.722656 85.292969 C 323.722656 85.292969 287.40625 98.421875 269.78125 162.828125 C 255.964844 213.320312 278.632812 253.613281 262.953125 291.449219 C 257.03125 306.066406 253.066406 303.292969 239.796875 322.359375 C 225.398438 342.945312 177.128906 411.957031 200.957031 472.949219 C 216.3125 512.285156 262.277344 549.980469 309.621094 543.355469 C 361.824219 536.039062 386.03125 479.027344 393.800781 460.695312 C 423.097656 391.480469 394.898438 324.960938 387.832031 309.324219 Z M 387.832031 309.324219 " fill-opacity="1" fill-rule="nonzero"/><g clip-path="url(#2e5c2a64d0)"><path fill="#f5b493" d="M 353.914062 279.417969 L 431.007812 279.417969 L 431.007812 420.433594 L 353.914062 420.433594 Z M 353.914062 279.417969 " fill-opacity="1" fill-rule="nonzero"/></g><g clip-path="url(#7f2b8c9de8)"><path fill="#eba284" d="M 425.367188 308.085938 C 413.980469 348.632812 378.949219 375.203125 338.714844 377.664062 L 338.714844 327.84375 Z M 425.367188 308.085938 " fill-opacity="1" fill-rule="nonzero"/></g><path fill="#f5b493" d="M 392.453125 387.753906 C 382.84375 387.851562 373.238281 387.636719 363.644531 387.101562 C 354.046875 386.566406 344.480469 385.71875 334.9375 384.554688 C 325.398438 383.386719 315.910156 381.910156 306.464844 380.117188 C 297.023438 378.328125 287.648438 376.226562 278.347656 373.816406 C 269.042969 371.410156 259.828125 368.695312 250.703125 365.679688 C 241.578125 362.660156 232.5625 359.347656 223.65625 355.734375 C 214.75 352.121094 205.972656 348.222656 197.324219 344.03125 C 188.675781 339.839844 180.171875 335.367188 171.820312 330.617188 L 283.570312 139.296875 L 240.691406 115.277344 C 216.515625 135.800781 193.539062 157.582031 171.757812 180.625 C 106.863281 249.351562 67.464844 291.058594 67.746094 332.136719 C 68.183594 394.207031 159.269531 457.140625 285.074219 488.253906 C 289.492188 488.757812 293.925781 488.949219 298.371094 488.832031 C 302.816406 488.710938 307.230469 488.285156 311.617188 487.546875 C 316.003906 486.808594 320.316406 485.765625 324.554688 484.425781 C 328.792969 483.082031 332.917969 481.449219 336.929688 479.527344 C 387.519531 454.570312 392.25 391.355469 392.453125 387.753906 Z M 392.453125 387.753906 " fill-opacity="1" fill-rule="nonzero"/><g clip-path="url(#2c9119d51e)"><path fill="#86ebf9" d="M 649.839844 22.5 L 654.824219 77.238281 L 662.171875 24.503906 Z M 649.839844 22.5 " fill-opacity="1" fill-rule="nonzero"/></g><path fill="#86ebf9" d="M 720.824219 45.34375 L 685.8125 85.496094 L 726.339844 54.035156 Z M 720.824219 45.34375 " fill-opacity="1" fill-rule="nonzero"/><path fill="#86ebf9" d="M 747.398438 102.085938 L 701.070312 120.386719 L 749.839844 114.933594 Z M 747.398438 102.085938 " fill-opacity="1" fill-rule="nonzero"/><path fill="#f5b493" d="M 448.492188 110.6875 C 414.730469 85.371094 364.753906 85.964844 334.644531 108.007812 C 326.324219 113.347656 318.945312 119.765625 312.503906 127.261719 C 291.589844 147.207031 294.800781 169.5625 292.140625 198.859375 C 291.042969 210.703125 286.703125 221.71875 284.429688 239.828125 C 282.160156 257.9375 284.007812 275.09375 297.683594 307.054688 C 308.246094 331.777344 317.222656 342.320312 323.738281 346.535156 C 348.804688 362.625 383.414062 344.214844 396.355469 337.351562 C 408.011719 331.003906 418.625 323.230469 428.203125 314.039062 C 445.84375 299.691406 486.265625 260.648438 486.8125 202.480469 C 486.90625 190.023438 487.328125 139.84375 448.492188 110.6875 Z M 448.492188 110.6875 " fill-opacity="1" fill-rule="nonzero"/><path fill="#2d1929" d="M 333.609375 266.195312 C 326.996094 262.496094 323.613281 258.582031 323.535156 254.539062 C 323.347656 245.59375 338.808594 244.371094 343.699219 217.785156 C 343.738281 217.570312 343.847656 217.398438 344.027344 217.273438 C 344.207031 217.148438 344.40625 217.105469 344.621094 217.144531 C 344.839844 217.179688 345.007812 217.292969 345.136719 217.472656 C 345.261719 217.652344 345.304688 217.851562 345.265625 218.066406 C 344.5625 222.605469 343.253906 226.964844 341.34375 231.144531 C 339.433594 235.324219 336.992188 239.164062 334.015625 242.664062 C 329.613281 247.613281 325.039062 250.355469 325.132812 254.507812 C 325.132812 257.953125 328.265625 261.417969 334.40625 264.816406 C 334.597656 264.925781 334.71875 265.089844 334.777344 265.300781 C 334.832031 265.511719 334.804688 265.714844 334.695312 265.902344 C 334.585938 266.09375 334.425781 266.21875 334.210938 266.273438 C 334 266.332031 333.800781 266.304688 333.609375 266.195312 Z M 333.609375 266.195312 " fill-opacity="1" fill-rule="nonzero"/><path fill="#2d1929" d="M 314.699219 207.242188 C 310.4375 206.882812 306.535156 211.941406 305.988281 218.519531 C 305.441406 225.101562 308.449219 230.742188 312.710938 231.054688 C 316.96875 231.367188 320.871094 226.355469 321.421875 219.773438 C 321.96875 213.195312 318.960938 207.601562 314.699219 207.242188 Z M 314.699219 207.242188 " fill-opacity="1" fill-rule="nonzero"/><path fill="#2d1929" d="M 381.046875 212.789062 C 376.785156 212.441406 372.886719 217.488281 372.335938 224.066406 C 371.789062 230.648438 374.796875 236.289062 379.058594 236.601562 C 383.320312 236.914062 387.21875 231.902344 387.769531 225.320312 C 388.316406 218.742188 385.308594 213.148438 381.046875 212.789062 Z M 381.046875 212.789062 " fill-opacity="1" fill-rule="nonzero"/><path fill="#2d1929" d="M 307.476562 185.089844 C 307.269531 185.050781 307.074219 184.972656 306.898438 184.855469 C 306.722656 184.742188 306.574219 184.59375 306.453125 184.421875 C 306.335938 184.246094 306.253906 184.054688 306.210938 183.847656 C 306.167969 183.640625 306.164062 183.433594 306.203125 183.222656 C 306.242188 183.015625 306.320312 182.824219 306.4375 182.644531 C 306.554688 182.46875 306.699219 182.320312 306.875 182.203125 C 307.050781 182.082031 307.242188 182.003906 307.449219 181.960938 C 307.65625 181.917969 307.863281 181.914062 308.070312 181.957031 C 309.4375 182.222656 310.816406 182.398438 312.207031 182.492188 C 313.59375 182.582031 314.984375 182.585938 316.375 182.503906 C 317.761719 182.417969 319.140625 182.25 320.511719 181.992188 C 321.878906 181.734375 323.226562 181.390625 324.550781 180.960938 C 325.875 180.535156 327.167969 180.023438 328.425781 179.433594 C 329.6875 178.84375 330.90625 178.175781 332.082031 177.429688 C 333.257812 176.6875 334.382812 175.871094 335.457031 174.984375 C 336.53125 174.097656 337.542969 173.148438 338.496094 172.132812 C 338.636719 171.964844 338.804688 171.832031 339 171.734375 C 339.195312 171.636719 339.398438 171.582031 339.617188 171.570312 C 339.835938 171.558594 340.046875 171.59375 340.25 171.667969 C 340.453125 171.746094 340.636719 171.859375 340.792969 172.011719 C 340.949219 172.164062 341.066406 172.339844 341.148438 172.542969 C 341.234375 172.746094 341.269531 172.957031 341.265625 173.171875 C 341.261719 173.390625 341.210938 173.597656 341.121094 173.796875 C 341.027344 173.996094 340.902344 174.164062 340.738281 174.308594 C 339.695312 175.421875 338.589844 176.464844 337.417969 177.433594 C 336.246094 178.40625 335.015625 179.300781 333.730469 180.117188 C 332.445312 180.933594 331.113281 181.667969 329.738281 182.316406 C 328.359375 182.960938 326.945312 183.519531 325.496094 183.992188 C 324.050781 184.460938 322.578125 184.835938 321.082031 185.121094 C 319.585938 185.402344 318.078125 185.589844 316.558594 185.683594 C 315.035156 185.777344 313.515625 185.773438 311.996094 185.671875 C 310.476562 185.574219 308.972656 185.378906 307.476562 185.089844 Z M 307.476562 185.089844 " fill-opacity="1" fill-rule="nonzero"/><path fill="#2d1929" d="M 392.6875 192.390625 C 391.4375 192.414062 390.191406 192.34375 388.953125 192.1875 C 387.710938 192.027344 386.492188 191.777344 385.289062 191.441406 C 384.082031 191.101562 382.910156 190.675781 381.769531 190.164062 C 380.628906 189.65625 379.53125 189.0625 378.476562 188.390625 C 377.421875 187.71875 376.425781 186.972656 375.480469 186.152344 C 374.535156 185.335938 373.65625 184.449219 372.839844 183.503906 C 372.027344 182.554688 371.285156 181.550781 370.617188 180.492188 C 369.949219 179.4375 369.363281 178.335938 368.859375 177.191406 C 368.773438 177.003906 368.726562 176.808594 368.71875 176.601562 C 368.710938 176.398438 368.738281 176.199219 368.808594 176.003906 C 368.878906 175.8125 368.984375 175.636719 369.125 175.484375 C 369.261719 175.332031 369.425781 175.214844 369.609375 175.125 C 369.796875 175.035156 369.996094 174.988281 370.203125 174.976562 C 370.410156 174.96875 370.613281 175 370.808594 175.070312 C 371.003906 175.140625 371.179688 175.246094 371.332031 175.386719 C 371.484375 175.523438 371.605469 175.6875 371.695312 175.875 C 372.605469 177.867188 373.773438 179.695312 375.195312 181.363281 C 376.617188 183.027344 378.238281 184.46875 380.058594 185.683594 C 390.414062 192.4375 402.542969 187.6875 403.890625 187.125 C 404.082031 187.046875 404.28125 187.007812 404.488281 187.007812 C 404.695312 187.007812 404.898438 187.046875 405.089844 187.125 C 405.28125 187.207031 405.449219 187.320312 405.597656 187.464844 C 405.742188 187.613281 405.859375 187.78125 405.9375 187.972656 C 406.015625 188.164062 406.058594 188.363281 406.058594 188.574219 C 406.058594 188.78125 406.019531 188.980469 405.941406 189.171875 C 405.859375 189.363281 405.75 189.535156 405.601562 189.683594 C 405.457031 189.828125 405.289062 189.941406 405.09375 190.023438 C 401.109375 191.589844 396.972656 192.378906 392.6875 192.390625 Z M 392.6875 192.390625 " fill-opacity="1" fill-rule="nonzero"/><g clip-path="url(#7c1bc7e652)"><path fill="#917eec" d="M 409.480469 387 C 409.480469 387 505.925781 382.457031 517.003906 428.46875 C 528.078125 474.484375 494.535156 727.5 494.535156 727.5 L 255.996094 727.5 C 255.996094 727.5 259.222656 469.6875 284.507812 428.46875 C 309.796875 387.25 409.480469 387 409.480469 387 Z M 409.480469 387 " fill-opacity="1" fill-rule="nonzero"/></g><path fill="#917eec" d="M 450.859375 381.628906 C 464.285156 382.769531 529.753906 389.648438 557.1875 437.636719 C 576.691406 471.757812 564.832031 509.074219 541.082031 583.726562 C 524.820312 634.863281 512.882812 670.832031 482.003906 680.859375 C 460.351562 687.957031 435.378906 680.328125 421.703125 669.894531 C 352.597656 617.003906 445.125 395.070312 450.859375 381.628906 Z M 450.859375 381.628906 " fill-opacity="1" fill-rule="nonzero"/><path fill="#917eec" d="M 404.96875 386.875 C 404.96875 386.875 253.441406 365.300781 171.820312 330.617188 C 157.746094 335.382812 143.289062 338.167969 128.453125 338.964844 C 108.902344 340 91.277344 340.957031 80.230469 329.269531 C 77.753906 326.480469 75.769531 323.375 74.277344 319.957031 C 72.78125 316.539062 71.851562 312.976562 71.488281 309.261719 C 69.15625 310.609375 57.15625 317.769531 53.457031 332.589844 C 48.320312 353.128906 64.015625 368.625 64.675781 369.3125 C 66.601562 372.054688 69.453125 375.988281 73.101562 380.546875 C 109.136719 425.730469 152.582031 446.519531 187.894531 462.9375 C 221.996094 478.757812 257.449219 490.492188 294.253906 498.140625 L 363.1875 445.34375 Z M 404.96875 386.875 " fill-opacity="1" fill-rule="nonzero"/><path fill="#917eec" d="M 352.269531 362.246094 L 446.707031 362.246094 C 446.996094 362.246094 447.285156 362.277344 447.570312 362.332031 C 447.855469 362.390625 448.132812 362.472656 448.402344 362.585938 C 448.671875 362.695312 448.925781 362.832031 449.167969 362.996094 C 449.410156 363.15625 449.636719 363.339844 449.839844 363.546875 C 450.046875 363.75 450.230469 363.976562 450.394531 364.21875 C 450.554688 364.460938 450.691406 364.714844 450.800781 364.984375 C 450.914062 365.253906 450.996094 365.53125 451.054688 365.816406 C 451.113281 366.101562 451.140625 366.390625 451.140625 366.679688 L 451.140625 399.347656 C 451.140625 399.636719 451.113281 399.925781 451.054688 400.210938 C 450.996094 400.496094 450.914062 400.773438 450.800781 401.042969 C 450.691406 401.3125 450.554688 401.566406 450.394531 401.808594 C 450.230469 402.050781 450.046875 402.273438 449.839844 402.480469 C 449.636719 402.6875 449.410156 402.871094 449.167969 403.03125 C 448.925781 403.195312 448.671875 403.332031 448.402344 403.441406 C 448.132812 403.554688 447.855469 403.636719 447.570312 403.695312 C 447.285156 403.75 446.996094 403.78125 446.707031 403.78125 L 352.269531 403.78125 C 351.976562 403.78125 351.6875 403.75 351.402344 403.695312 C 351.117188 403.636719 350.839844 403.554688 350.570312 403.441406 C 350.300781 403.332031 350.046875 403.195312 349.804688 403.03125 C 349.5625 402.871094 349.339844 402.6875 349.132812 402.480469 C 348.925781 402.273438 348.742188 402.050781 348.582031 401.808594 C 348.417969 401.566406 348.28125 401.3125 348.171875 401.042969 C 348.058594 400.773438 347.976562 400.496094 347.917969 400.210938 C 347.863281 399.925781 347.832031 399.636719 347.835938 399.347656 L 347.835938 366.679688 C 347.832031 366.390625 347.863281 366.101562 347.917969 365.816406 C 347.976562 365.53125 348.058594 365.253906 348.171875 364.984375 C 348.28125 364.714844 348.417969 364.460938 348.582031 364.21875 C 348.742188 363.976562 348.925781 363.75 349.132812 363.546875 C 349.339844 363.339844 349.5625 363.15625 349.804688 362.996094 C 350.046875 362.832031 350.300781 362.695312 350.570312 362.585938 C 350.839844 362.472656 351.117188 362.390625 351.402344 362.332031 C 351.6875 362.277344 351.976562 362.246094 352.269531 362.246094 Z M 352.269531 362.246094 " fill-opacity="1" fill-rule="nonzero"/><g clip-path="url(#cb5f2da6f1)"><path fill="#917eec" d="M 269.265625 462.734375 C 236.960938 494.867188 231.664062 541.191406 250.886719 580.078125 C 252.589844 629.164062 254.292969 678.300781 255.996094 727.484375 L 305.988281 727.484375 L 347.898438 469.894531 Z M 269.265625 462.734375 " fill-opacity="1" fill-rule="nonzero"/></g><g clip-path="url(#90e55785ee)"><path fill="#6d5fde" d="M 252.457031 484.667969 C 276.332031 442.742188 282.878906 432.746094 283.570312 433.125 C 285.058594 433.921875 263.546875 483.023438 258.03125 523.988281 C 257.300781 528.3125 257.09375 532.660156 257.414062 537.03125 C 257.734375 541.402344 258.570312 545.671875 259.929688 549.839844 C 264.738281 563.71875 272.835938 565.695312 278.445312 576.035156 C 287.847656 593.378906 276.160156 606.492188 274.875 635.726562 C 274.167969 651.390625 272.695312 684.667969 289.164062 695.933594 C 314.933594 713.539062 371.460938 670.410156 380.027344 682.660156 C 382.488281 686.203125 380.71875 694.113281 378.460938 698.734375 C 374.6875 706.570312 368.703125 706.882812 368.90625 710.59375 C 369.34375 718.601562 397.699219 724.523438 412.207031 727.53125 C 412.363281 727.53125 410.453125 727.53125 256.027344 727.53125 L 250.921875 580.125 C 250.921875 580.125 218.316406 536.757812 252.457031 484.667969 Z M 252.457031 484.667969 " fill-opacity="1" fill-rule="nonzero"/></g><g clip-path="url(#b7d6fb8b4c)"><path fill="#6d5fde" d="M 504.453125 529.066406 C 520.121094 559.679688 530.070312 593.191406 516.1875 617.832031 C 498.40625 649.433594 448.820312 653.445312 450.890625 665.289062 C 452.109375 672.210938 470.160156 676.691406 484.039062 674.984375 C 490.40625 674.140625 496.332031 672.050781 501.820312 668.71875 L 494.535156 727.5 L 471.414062 727.203125 C 483.585938 705.910156 482.707031 695.164062 478.949219 689.257812 C 470.675781 676.332031 448.132812 686.265625 426.386719 669.878906 C 412.757812 659.601562 407.585938 645.140625 404.453125 636.257812 C 394.628906 608.589844 401.851562 583.898438 404.953125 574.984375 Z M 504.453125 529.066406 " fill-opacity="1" fill-rule="nonzero"/></g><path fill="#6d5fde" d="M 57.875 322.359375 C 57.875 322.359375 56.011719 343.101562 65.441406 349.933594 C 74.875 356.765625 83.804688 350.449219 90.179688 351.203125 C 96.554688 351.953125 84.257812 369.6875 99.375 395.367188 C 114.496094 421.042969 264.863281 476.597656 264.863281 476.597656 L 256.011719 493.363281 C 256.011719 493.363281 0.0976562 403.199219 57.875 322.359375 Z M 57.875 322.359375 " fill-opacity="1" fill-rule="nonzero"/><path fill="#2d1929" d="M 363.890625 108.667969 C 359.976562 109.398438 356.128906 110.378906 352.339844 111.609375 C 348.554688 112.84375 344.863281 114.3125 341.265625 116.027344 C 337.671875 117.738281 334.199219 119.671875 330.855469 121.835938 C 327.511719 123.996094 324.324219 126.367188 321.285156 128.945312 C 318.25 131.519531 315.394531 134.28125 312.714844 137.230469 C 310.039062 140.179688 307.5625 143.285156 305.289062 146.554688 C 303.015625 149.824219 300.964844 153.226562 299.132812 156.765625 C 297.300781 160.300781 295.707031 163.941406 294.347656 167.683594 C 294.347656 167.683594 286.089844 133.214844 299.863281 105.613281 C 313.632812 78.007812 352.925781 79.589844 367.730469 82.644531 C 367.730469 82.644531 481.234375 44.386719 509.042969 143.871094 C 536.851562 243.351562 531.496094 330.835938 561.339844 381.613281 C 591.183594 432.386719 566.980469 473.121094 566.980469 473.121094 C 566.980469 473.121094 555.167969 419.460938 495.117188 397.921875 C 435.066406 376.378906 430.003906 321.8125 434.015625 294.035156 C 438.027344 266.257812 465.445312 244.636719 460.554688 219.085938 C 455.667969 193.53125 364.660156 179.855469 363.890625 108.667969 Z M 363.890625 108.667969 " fill-opacity="1" fill-rule="nonzero"/><path fill="#f5b493" d="M 492.40625 240.691406 C 485.984375 256.589844 470.160156 265.207031 457.0625 259.914062 C 443.964844 254.617188 438.574219 237.429688 445 221.53125 C 451.421875 205.628906 467.246094 197.027344 480.34375 202.304688 C 493.441406 207.585938 498.84375 224.789062 492.40625 240.691406 Z M 492.40625 240.691406 " fill-opacity="1" fill-rule="nonzero"/><path fill="#2d1929" d="M 455.621094 243.195312 C 455.933594 243.195312 463.046875 242.066406 463.703125 235.035156 C 464.175781 230.175781 455.386719 228.765625 455.308594 228.765625 C 455.1875 228.746094 455.078125 228.703125 454.980469 228.632812 C 454.882812 228.566406 454.804688 228.476562 454.742188 228.371094 C 454.683594 228.269531 454.652344 228.15625 454.644531 228.035156 C 454.632812 227.914062 454.652344 227.796875 454.695312 227.6875 C 455.007812 226.949219 462.371094 209.667969 474.28125 210.234375 C 484.605469 210.734375 484.257812 222.484375 484.242188 222.59375 C 484.242188 222.8125 484.167969 222.996094 484.015625 223.148438 C 483.859375 223.300781 483.675781 223.378906 483.460938 223.378906 C 483.242188 223.378906 483.058594 223.300781 482.90625 223.148438 C 482.753906 222.996094 482.675781 222.8125 482.675781 222.59375 C 482.675781 222.171875 482.957031 212.285156 474.203125 211.863281 C 464.800781 211.378906 458.207031 223.988281 456.546875 227.53125 C 459.144531 228.109375 465.757812 230.113281 465.269531 235.363281 C 464.488281 243.667969 455.871094 244.917969 455.871094 244.933594 C 455.632812 244.96875 455.414062 244.914062 455.21875 244.769531 C 455.027344 244.625 454.910156 244.429688 454.875 244.191406 C 454.84375 243.949219 454.898438 243.734375 455.042969 243.539062 C 455.1875 243.34375 455.378906 243.230469 455.621094 243.195312 Z M 455.621094 243.195312 " fill-opacity="1" fill-rule="nonzero"/><path fill="#2d1929" d="M 340.171875 274.230469 C 350.167969 270.894531 362.246094 278.933594 361.871094 283.539062 C 361.746094 284.933594 360.492188 285.855469 341.960938 293.109375 C 330.992188 297.402344 329.425781 297.808594 328.4375 296.933594 C 325.117188 293.957031 329.097656 277.867188 340.171875 274.230469 Z M 340.171875 274.230469 " fill-opacity="1" fill-rule="nonzero"/><path fill="#f5b493" d="M 272.835938 149.824219 C 278.480469 149.386719 283.75 147.746094 288.644531 144.902344 C 308.730469 132.964844 303.105469 107.835938 319.507812 100.644531 C 331.023438 95.601562 348.398438 101.554688 352.800781 96.054688 C 357.390625 90.320312 342.273438 87.0625 342.273438 87.0625 C 342.273438 87.0625 361.808594 91.917969 363.515625 87.0625 C 365.222656 82.207031 347.851562 77.113281 347.851562 77.113281 C 347.851562 77.113281 364.300781 82.847656 365.253906 77.113281 C 366.210938 71.378906 317.238281 59.457031 298.359375 62.761719 C 279.480469 66.070312 234.125 120.871094 234.125 120.871094 C 234.207031 122.914062 234.480469 124.929688 234.949219 126.917969 C 235.417969 128.90625 236.074219 130.835938 236.914062 132.699219 C 237.753906 134.5625 238.765625 136.328125 239.945312 137.996094 C 241.125 139.664062 242.457031 141.203125 243.933594 142.617188 C 255.871094 153.597656 271.523438 150.136719 272.835938 149.824219 Z M 272.835938 149.824219 " fill-opacity="1" fill-rule="nonzero"/><path fill="#eba284" d="M 376.394531 329.332031 C 384.792969 300.378906 391.261719 278.117188 397.828125 256.636719 C 405.753906 230.679688 407.039062 224.882812 412.300781 217.925781 C 415.492188 213.757812 419.25 210.191406 423.582031 207.226562 L 427.609375 191.558594 C 433.210938 194.804688 439.164062 197.167969 445.46875 198.640625 C 445.300781 211.320312 445.140625 224.003906 444.984375 236.695312 L 406.851562 314.777344 Z M 376.394531 329.332031 " fill-opacity="1" fill-rule="nonzero"/><path fill="#e73f46" d="M 447.71875 194.121094 L 509.941406 220.304688 C 510.738281 220.636719 511.488281 221.046875 512.203125 221.527344 C 512.917969 222.011719 513.574219 222.558594 514.179688 223.167969 C 514.785156 223.78125 515.328125 224.445312 515.800781 225.164062 C 516.273438 225.882812 516.675781 226.640625 517 227.4375 C 517.324219 228.238281 517.570312 229.058594 517.730469 229.902344 C 517.894531 230.75 517.976562 231.601562 517.96875 232.464844 C 517.964844 233.324219 517.875 234.175781 517.703125 235.019531 C 517.53125 235.863281 517.277344 236.683594 516.945312 237.476562 L 459.371094 374.296875 C 459.039062 375.09375 458.628906 375.84375 458.148438 376.558594 C 457.664062 377.273438 457.117188 377.929688 456.507812 378.535156 C 455.894531 379.140625 455.230469 379.683594 454.511719 380.15625 C 453.792969 380.628906 453.035156 381.03125 452.238281 381.355469 C 451.4375 381.679688 450.617188 381.925781 449.773438 382.085938 C 448.925781 382.25 448.074219 382.332031 447.210938 382.324219 C 446.351562 382.320312 445.5 382.230469 444.65625 382.058594 C 443.8125 381.886719 442.992188 381.632812 442.199219 381.300781 L 379.976562 355.117188 C 379.183594 354.785156 378.429688 354.375 377.714844 353.894531 C 377.003906 353.410156 376.34375 352.863281 375.738281 352.25 C 375.132812 351.640625 374.59375 350.972656 374.117188 350.253906 C 373.644531 349.535156 373.246094 348.777344 372.917969 347.980469 C 372.59375 347.183594 372.351562 346.363281 372.1875 345.515625 C 372.023438 344.671875 371.945312 343.816406 371.949219 342.957031 C 371.953125 342.097656 372.042969 341.242188 372.214844 340.402344 C 372.386719 339.558594 372.640625 338.738281 372.976562 337.945312 L 430.546875 201.121094 C 430.878906 200.328125 431.289062 199.574219 431.769531 198.863281 C 432.253906 198.148438 432.800781 197.488281 433.414062 196.882812 C 434.023438 196.277344 434.691406 195.738281 435.410156 195.265625 C 436.128906 194.789062 436.886719 194.390625 437.683594 194.066406 C 438.480469 193.738281 439.300781 193.496094 440.148438 193.332031 C 440.992188 193.167969 441.847656 193.089844 442.707031 193.09375 C 443.566406 193.101562 444.421875 193.1875 445.261719 193.359375 C 446.105469 193.535156 446.925781 193.789062 447.71875 194.121094 Z M 447.71875 194.121094 " fill-opacity="1" fill-rule="nonzero"/><path fill="#f5b493" d="M 424.113281 309.199219 C 400.519531 459.945312 384.445312 631.808594 435.582031 650.5 C 451.25 656.261719 468.074219 645.5625 472.320312 642.851562 C 537.242188 601.398438 501.585938 424.398438 475.34375 294.160156 C 475.3125 293.988281 476.457031 293.785156 424.113281 309.199219 Z M 424.113281 309.199219 " fill-opacity="1" fill-rule="nonzero"/><path fill="#f5b493" d="M 479.699219 335.957031 C 479.699219 335.957031 489.523438 314.167969 492.234375 302.039062 C 494.945312 289.914062 516.1875 266.726562 512.601562 261.480469 C 512.03125 260.550781 511.242188 259.875 510.234375 259.457031 C 506.332031 257.890625 501.789062 263.453125 495.101562 268.625 C 486.859375 274.984375 482.410156 278.414062 479.183594 277.554688 C 466.648438 274.199219 468.214844 205.21875 460.820312 200.785156 C 455.527344 197.652344 451.28125 232.121094 450.605469 238.292969 C 450.605469 238.292969 436.507812 224.191406 430.992188 222.296875 C 425.476562 220.402344 414.386719 218.144531 411.332031 224.757812 C 408.277344 231.367188 423.003906 231.539062 425.429688 234.59375 C 427.859375 237.648438 434 246.078125 434 246.078125 C 434 246.078125 419.414062 235.113281 414.917969 234.988281 C 410.421875 234.863281 409.65625 243.117188 417.691406 251.90625 C 417.691406 251.90625 412.851562 246.722656 409.355469 248.148438 C 408.71875 248.496094 408.179688 248.953125 407.730469 249.527344 C 407.285156 250.097656 406.972656 250.734375 406.789062 251.4375 C 404.859375 257.03125 397.796875 313.757812 436.148438 332.902344 C 453.601562 341.597656 471.492188 338.183594 479.699219 335.957031 Z M 479.699219 335.957031 " fill-opacity="1" fill-rule="nonzero"/><path fill="#2d1929" d="M 345.375 88.707031 L 322.375 86.890625 C 322.160156 86.875 321.984375 86.78125 321.84375 86.617188 C 321.707031 86.449219 321.648438 86.257812 321.671875 86.042969 C 321.699219 85.835938 321.792969 85.664062 321.949219 85.527344 C 322.109375 85.390625 322.292969 85.320312 322.5 85.324219 L 345.5 87.140625 C 345.714844 87.15625 345.894531 87.25 346.035156 87.414062 C 346.175781 87.578125 346.238281 87.769531 346.21875 87.988281 C 346.203125 88.203125 346.113281 88.382812 345.945312 88.523438 C 345.78125 88.664062 345.589844 88.726562 345.375 88.707031 Z M 345.375 88.707031 " fill-opacity="1" fill-rule="nonzero"/><path fill="#2d1929" d="M 354.164062 80.121094 C 354.007812 80.121094 355.449219 80.417969 322.3125 73.355469 C 322.097656 73.308594 321.929688 73.191406 321.808594 73.007812 C 321.6875 72.824219 321.648438 72.621094 321.695312 72.40625 C 321.738281 72.191406 321.855469 72.019531 322.039062 71.902344 C 322.226562 71.78125 322.425781 71.742188 322.640625 71.789062 L 354.320312 78.539062 C 354.539062 78.5625 354.71875 78.65625 354.855469 78.828125 C 354.996094 78.996094 355.054688 79.191406 355.03125 79.410156 C 355.011719 79.628906 354.914062 79.804688 354.746094 79.945312 C 354.574219 80.085938 354.382812 80.144531 354.164062 80.121094 Z M 354.164062 80.121094 " fill-opacity="1" fill-rule="nonzero"/><g clip-path="url(#2d6c4c3839)"><g clip-path="url(#212bc00cf5)"><path fill="#e73f46" d="M 680.703125 217.472656 L 570.035156 217.472656 L 570.035156 149.855469 C 570.035156 148.03125 570.125 146.210938 570.300781 144.394531 C 570.480469 142.578125 570.75 140.773438 571.105469 138.984375 C 571.460938 137.195312 571.902344 135.429688 572.433594 133.683594 C 572.960938 131.9375 573.578125 130.21875 574.273438 128.535156 C 574.972656 126.847656 575.753906 125.203125 576.613281 123.59375 C 577.472656 121.984375 578.410156 120.421875 579.421875 118.902344 C 580.4375 117.386719 581.523438 115.921875 582.679688 114.511719 C 583.835938 113.101562 585.0625 111.75 586.351562 110.460938 C 587.640625 109.171875 588.992188 107.945312 590.402344 106.789062 C 591.8125 105.632812 593.277344 104.546875 594.792969 103.53125 C 596.3125 102.519531 597.875 101.582031 599.484375 100.722656 C 601.09375 99.863281 602.738281 99.082031 604.425781 98.382812 C 606.109375 97.6875 607.828125 97.070312 609.574219 96.542969 C 611.320312 96.011719 613.085938 95.570312 614.875 95.214844 C 616.664062 94.859375 618.46875 94.589844 620.285156 94.410156 C 622.101562 94.234375 623.921875 94.144531 625.746094 94.144531 C 627.542969 94.144531 629.339844 94.230469 631.132812 94.410156 C 632.921875 94.585938 634.703125 94.847656 636.46875 95.199219 C 638.230469 95.550781 639.976562 95.988281 641.699219 96.511719 C 643.421875 97.03125 645.113281 97.636719 646.777344 98.328125 C 648.441406 99.015625 650.066406 99.785156 651.652344 100.632812 C 653.238281 101.480469 654.78125 102.40625 656.277344 103.40625 C 657.773438 104.40625 659.21875 105.476562 660.609375 106.617188 C 662 107.761719 663.332031 108.96875 664.605469 110.242188 C 665.878906 111.511719 667.085938 112.84375 668.230469 114.238281 C 669.371094 115.628906 670.441406 117.074219 671.441406 118.570312 C 672.441406 120.066406 673.367188 121.609375 674.214844 123.195312 C 675.0625 124.78125 675.832031 126.40625 676.519531 128.070312 C 677.207031 129.734375 677.816406 131.425781 678.335938 133.148438 C 678.859375 134.871094 679.296875 136.613281 679.648438 138.378906 C 680 140.144531 680.261719 141.925781 680.4375 143.714844 C 680.617188 145.507812 680.703125 147.300781 680.703125 149.101562 Z M 680.703125 217.472656 " fill-opacity="1" fill-rule="nonzero"/></g></g><g clip-path="url(#8e8ae0e668)"><g clip-path="url(#f5b63d8053)"><path fill="#cc3745" d="M 629.707031 82.238281 C 666.792969 120.855469 671.710938 174.246094 651.296875 221.53125 L 691.921875 220.496094 L 691.921875 91.214844 L 660.824219 76.988281 Z M 629.707031 82.238281 " fill-opacity="1" fill-rule="nonzero"/></g></g><path fill="#40c2d6" d="M 571.242188 198.40625 L 679.496094 198.40625 C 680.3125 198.40625 681.121094 198.484375 681.921875 198.644531 C 682.722656 198.804688 683.496094 199.039062 684.25 199.351562 C 685.003906 199.664062 685.722656 200.046875 686.398438 200.5 C 687.078125 200.953125 687.707031 201.46875 688.28125 202.042969 C 688.859375 202.621094 689.375 203.25 689.828125 203.925781 C 690.28125 204.605469 690.664062 205.320312 690.976562 206.074219 C 691.289062 206.828125 691.523438 207.605469 691.683594 208.40625 C 691.839844 209.207031 691.921875 210.011719 691.921875 210.828125 L 691.921875 217.769531 C 691.921875 218.585938 691.839844 219.394531 691.683594 220.191406 C 691.523438 220.992188 691.289062 221.769531 690.976562 222.523438 C 690.664062 223.277344 690.28125 223.992188 689.828125 224.671875 C 689.375 225.351562 688.859375 225.976562 688.28125 226.554688 C 687.707031 227.132812 687.078125 227.644531 686.398438 228.097656 C 685.722656 228.550781 685.003906 228.933594 684.25 229.246094 C 683.496094 229.558594 682.722656 229.796875 681.921875 229.953125 C 681.121094 230.113281 680.3125 230.191406 679.496094 230.191406 L 571.242188 230.191406 C 570.425781 230.191406 569.617188 230.113281 568.816406 229.953125 C 568.015625 229.796875 567.238281 229.558594 566.484375 229.246094 C 565.734375 228.933594 565.015625 228.550781 564.339844 228.097656 C 563.660156 227.644531 563.03125 227.132812 562.457031 226.554688 C 561.878906 225.976562 561.363281 225.351562 560.910156 224.671875 C 560.457031 223.992188 560.074219 223.277344 559.761719 222.523438 C 559.449219 221.769531 559.214844 220.992188 559.054688 220.191406 C 558.898438 219.394531 558.816406 218.585938 558.816406 217.769531 L 558.816406 210.828125 C 558.816406 210.011719 558.898438 209.207031 559.054688 208.40625 C 559.214844 207.605469 559.449219 206.828125 559.761719 206.074219 C 560.074219 205.320312 560.457031 204.605469 560.910156 203.925781 C 561.363281 203.25 561.878906 202.621094 562.457031 202.042969 C 563.03125 201.46875 563.660156 200.953125 564.339844 200.5 C 565.015625 200.046875 565.734375 199.664062 566.484375 199.351562 C 567.238281 199.039062 568.015625 198.804688 568.816406 198.644531 C 569.617188 198.484375 570.425781 198.40625 571.242188 198.40625 Z M 571.242188 198.40625 " fill-opacity="1" fill-rule="nonzero"/></svg>